<svg width="763" height="564" viewBox="0 0 763 564" fill="none" xmlns="http://www.w3.org/2000/svg">
<mask id="mask0" mask-type="alpha" maskUnits="userSpaceOnUse" x="0" y="0" width="763" height="564">
<rect width="763" height="564" fill="#C4C4C4"/>
</mask>
<g mask="url(#mask0)">
<path d="M584.851 233.724C593.201 238.099 602.104 241.343 609.268 247.276C620.579 256.643 630.745 267.919 640.534 278.883C646.769 285.634 646.227 292.806 640.257 300.246C626.752 316.372 613.962 332.772 600.835 349.211C599.649 350.769 599.137 352.25 598.328 354.12C599.971 353.576 602.072 354.046 603.299 352.838C613.567 344.194 622.51 347.789 630.67 356.452C643.893 370.577 657.749 384.274 670.001 398.866C672.344 401.441 670.657 410.523 667.732 414.769C658.957 427.508 648.338 439.037 639.146 451.113C637.663 453.061 636.8 457.427 637.971 458.714C643.869 465.503 649.254 473.773 656.809 477.172C680.945 488.267 695.687 509.684 713.474 527.907C721.594 536.218 714.869 543.034 708.914 547.628C691.302 560.671 672.559 572.776 654.988 586.17C628.038 607.039 601.546 628.922 575.094 651.156C563.896 660.618 552.365 661.23 541.983 651.045C533.944 643.436 526.835 635.008 518.203 628.177C515.186 625.679 508.33 625.4 505.163 627.541C479.454 644.357 454.203 662.187 428.574 679.704C418.145 686.945 404.406 683.189 392.436 671.053C390.51 669.141 385.001 668.707 382.804 670.381C369.922 680.037 357.835 690.668 345.37 700.986C333.836 710.487 322.264 710.748 308.529 698.104C294.417 685.148 281.787 670.243 270.424 654.483C267.166 649.879 271.09 639.474 271.928 631.912C276.577 627.824 272.942 622.908 272.122 618.736C275.208 615.893 277.51 618.117 278.169 620.886C279.366 625.37 279.594 630.321 277.046 634.88C272.759 642.127 273.942 649.457 277.145 656.555C281.344 666.383 289.855 672.161 296.844 679.536C301.866 684.648 307.442 688.63 312.127 693.78C321.499 704.081 329.446 704.947 341.439 696.46C346.505 693.034 349.726 688.398 353.662 684.036C360.412 680.417 364.779 673.872 370.695 668.927C375.047 665.228 379.103 661.918 385.165 661.222C391.564 660.488 396.858 662.014 400.87 667.241C405.757 674.146 412.222 676.959 419.43 674.355C426.301 671.788 433.132 668.871 439.088 664.277C452.306 654.583 465.822 644.499 479.458 635.468C486.424 630.758 493.35 625.697 499.522 620.011C500.748 618.804 501.718 618.337 503.442 618.495C505.167 618.652 507.228 618.771 508.831 617.876C516.928 614.103 521.911 618.864 527.31 624.288C535.767 632.561 542.66 642.08 552.599 648.405C557.043 651.45 560.155 651.804 564.804 647.715C572.579 641.134 581.526 635.841 588.884 628.597C595.649 622.133 603.168 616.293 609.932 609.828C616.738 603.714 624.795 599.59 631.263 593.514C637.435 587.829 645.196 584.094 650.573 577.433C651.463 576.264 652.729 575.408 653.996 574.551C663.32 569.571 670.22 561.313 679.086 555.318C684.786 551.464 690.903 548.273 697.06 545.434C702.921 542.983 703.744 538.267 699.772 533.39C697.43 530.815 695.127 528.591 692.447 526.054C688.973 522.542 685.203 519.42 684.262 514.195C683.683 512.128 682.512 510.84 680.667 509.63C679.536 508.693 677.771 508.185 677.907 506.392C677.438 499.335 670.933 496.171 667.594 490.866C664.633 485.873 659.636 483.958 654.679 482.394C644.725 478.915 638.627 470.371 631.045 463.775C628.406 461.59 629.35 457.926 628.691 455.158C628.384 449.505 630.635 445.335 633.937 441.401C641.47 432.715 649.381 424.341 657.709 416.631C664.514 410.517 664.543 404.825 658.309 398.075C654.458 394.251 649.974 390.855 648.279 385.005C648.253 381.809 646.92 379.118 644.658 377.244C639.002 372.56 634.236 366.708 627.947 362.453C623.502 359.408 621.174 353.987 615.544 352.5C612.015 351.483 609.577 351.051 606.868 354.206C603.229 358.179 597.705 360.591 593.313 363.939C591.116 365.613 587.452 366.389 585.028 363.112C582.605 359.835 584.64 356.758 587.133 354.694C594.949 348.464 598.913 338.41 606.769 332.531C608.669 331.247 609.694 328.285 610.382 325.362C610.773 322.828 612.633 321.193 614.533 319.908C622.645 313.289 628.454 304.445 635.812 297.201C637.632 295.215 637.822 290.927 635.735 287.611C634.066 284.958 632.437 282.657 630.175 280.783C628.33 279.573 626.485 278.363 625.61 276.686C619.822 264.907 608.28 259.477 600.376 250.074C595.987 244.534 589.481 241.37 585.429 235.791C584.459 236.258 584.338 235.205 584.851 233.724Z" fill="#DDDDDD"/>
<path d="M584.85 233.724C585.268 234.387 585.725 235.401 586.479 236.025C587.691 237.664 586.882 239.534 585.535 239.689C576.105 240.771 573.07 250.008 566.818 254.991C562.802 258.652 558.303 258.102 556.096 253.733C555.14 251.354 555.949 249.484 556.421 247.652C557.959 243.21 561.005 240.016 563.673 236.51C569.684 229.421 574.186 221.083 581.328 214.93C585.681 211.231 588.445 205.581 591.626 200.594C598.325 190.582 606.235 182.208 613.688 172.82C619.362 165.769 624.202 157.393 631.344 151.24C635.696 147.541 635.429 142.239 632.427 136.895C630.758 134.242 628.495 132.369 626.57 130.457C616.484 119.882 607.329 108.49 596.354 99.0841C592.96 96.274 593.015 93.779 594.256 89.7259C595.497 85.6728 596.361 81.3074 597.561 76.9034C598.762 72.4994 595.746 70.0015 593.106 67.8158C587.491 63.483 581.282 59.9294 580.356 51.8588C580.275 51.157 579.481 50.1816 578.767 49.908C570.04 45.2214 563.685 37.4183 556.736 30.3944C553.262 26.8824 548.844 27.034 544.748 29.9928C541.581 32.1338 538.832 34.938 536.797 38.0157C529.248 49.5476 518.307 58.2693 511.136 70.1134C508.547 74.3212 504.491 77.6308 498.74 75.0912C496.559 73.9196 494.78 76.2569 493.096 76.4501C492.085 76.5661 491.412 76.6434 490.401 76.7594C489.728 76.8367 488.34 76.6404 488.26 75.9386C484.639 68.1772 476.666 64.1151 472.116 57.1715C467.942 50.5401 461.236 45.6215 455.54 40.587C453.277 38.7135 451.015 36.8401 449.979 33.7593C448.862 29.9768 444.861 30.7915 442.262 28.9567C438.195 26.2239 436.376 28.2103 433.963 30.9758C432.441 32.5726 430.204 33.8959 428.223 34.4787C425.233 35.1775 423.333 36.4621 422.308 39.4239C421.836 41.2557 420.272 42.5016 418.332 43.4353C410.652 47.872 404.561 54.2594 398.806 60.6082C395.168 64.581 391.569 68.9047 385.763 68.86C384.405 62.9721 390.427 61.9254 392.422 58.4968C405.776 47.0096 418.296 34.1961 432.525 24.3861C437.591 20.9604 449.162 20.6989 453.687 24.4458C467.302 36.0374 478.84 50.3558 491.525 62.7652C493.451 64.6773 499.97 64.9956 501.83 63.3601C512.57 52.8839 522.099 40.7692 533.216 30.6052C552.069 13.5097 554.496 7.8984 577.778 29.4014C588.874 39.86 599.08 51.4873 609.88 62.3355C617.622 70.3348 610.52 76.8381 606.666 81.9023C601.329 88.9142 604.048 91.8017 608.694 96.6013C617.904 105.499 627.115 114.396 635.059 124.15C646.935 138.43 645.287 147.862 632.08 163.599C615.274 183.659 599.262 204.695 583.25 225.73C581.768 227.678 581.08 230.601 580.014 233.212C581.442 233.759 583.166 233.917 584.85 233.724Z" fill="#DBDBDB"/>
<path d="M74.2887 553.984C58.4266 537.673 56.1018 523.364 66.011 502.673C81.1513 471.072 95.995 439.86 111.889 408.883C120.558 392.246 131.408 376.78 141.504 360.689C145.519 357.029 147.65 351.807 150.534 347.21C152.489 343.43 149.703 336.995 142.539 331.062C132.359 322.632 123.741 312.955 115.38 302.538C111.408 297.661 108.622 291.226 109.878 284.327C110.566 281.404 110.877 278.169 114.662 278.445C115.416 279.07 115.833 279.733 116.291 280.747C117.796 290.884 122.17 299.27 129.832 306.568C138.249 314.49 146.368 322.801 154.191 331.503C155.363 332.79 156.197 334.116 156.399 335.871C157.512 348.542 155.392 359.806 147.683 369.934C139.084 381.231 134.135 394.598 125.873 405.856C117.571 416.764 112.918 429.741 106.421 441.508C102.511 449.067 98.6017 456.626 93.2242 463.287C92.3346 464.455 91.4854 465.975 91.6465 467.379C91.8735 472.33 90.2555 476.071 85.8225 479.068C82.656 481.209 82.883 486.16 81.265 489.901C78.7575 494.811 75.9132 499.759 75.1702 505.177C74.1709 511.335 68.808 515.151 69.1962 521.506C67.6844 529.145 70.2141 536.32 74.5631 541.51C82.4667 550.912 90.3704 560.315 99.8371 568.472C101.722 570.034 103.311 571.984 104.94 574.286C108.535 578.851 116.307 581.158 121.575 579.487C122.248 579.41 122.922 579.333 123.595 579.255C124.942 579.101 126.29 578.946 127.124 580.272C128.336 581.911 127.864 583.743 126.637 584.95C122.662 588.961 112.061 588.756 106.903 585.437C99.8995 580.908 95.0526 574.354 89.6127 568.579C84.2534 563.506 79.271 558.745 74.2887 553.984Z" fill="#D8D8D8"/>
<path d="M122.779 123.219C123.115 123.18 123.452 123.142 124.126 123.064C130.122 118.821 134.987 113.641 140.566 108.734C144.622 105.425 149.392 102.389 153.785 99.0403C162.233 92.3823 171.059 86.0366 179.091 78.7155C180.654 77.4695 182.257 76.5744 183.82 75.3285C187.243 72.447 190.626 69.2147 194.048 66.3332C202.753 58.9348 211.418 51.1854 220.46 43.7483C220.837 44.0606 220.837 44.0606 221.214 44.3728C222.049 45.6991 221.873 47.1413 220.647 48.3486C215.998 52.4374 212.978 58.8278 207.197 61.9799C204.287 63.3804 204.353 66.9281 202.951 69.5776C193.045 81.3801 180.339 89.5932 170.434 101.396C169.504 102.213 168.951 103.343 167.644 103.849C156.852 107.932 150.153 117.944 141.825 125.655C136.583 130.523 130.627 135.117 125.008 139.672C122.515 141.736 119.781 141.695 117.087 142.004C111.361 142.661 106.968 146.009 105.135 150.841C103.637 155.635 105.925 160.705 109.777 164.529C114.005 168.666 115.78 175.217 120.642 178.925C122.864 180.448 122.889 183.644 120.02 185.396C114.55 185.313 110.322 181.176 108.195 177.51C103.524 169.513 97.2092 162.061 96.7149 151.808C96.7697 149.313 97.2822 147.832 98.4683 146.274C102.755 139.027 110.636 136.345 116.135 130.736C118.21 128.01 120.703 125.946 122.779 123.219Z" fill="#D7D7D7"/>
<path d="M391.411 58.6129C389.416 62.0416 387.044 65.158 385.049 68.5866C383.321 77.3174 378.431 79.3007 364.798 79.4433C360.138 77.4895 360.207 72.1488 357.407 68.5595C356.155 66.5701 354.943 64.9316 352.425 63.7986C347.091 61.9221 345.356 55.722 341.208 52.2873C337.06 48.8526 333.209 45.0284 329.062 41.5938C324.914 38.1591 317.882 39.3217 315.037 44.2699C313.339 47.309 310.348 48.0078 308.273 50.7346C307.639 51.1628 307.343 51.5524 306.709 51.9806C301.563 54.7044 295.958 56.4142 290.233 57.0713C286.528 57.4965 282.703 56.8691 279.093 55.1502C270.999 50.0354 265.398 42.8568 257.937 37.3138C254.961 35.1667 255.327 29.4364 250.114 28.6127C247.299 27.8692 244.444 26.7748 241.453 27.4736C239.769 27.6669 238.126 28.2111 236.914 26.5725C243.573 16.2093 253.043 15.4779 262.374 25.428C268.191 31.5152 274.305 37.2129 279.151 43.7669C285.291 52.6613 291.433 52.6673 299.37 47.4902C303.803 44.4928 308.99 42.1199 313.463 39.4733C327.436 30.4037 334.871 32.7501 345.615 46.0931C352.428 54.9102 360.804 62.4813 369.18 70.0525C370.728 71.6523 375.403 70.7603 377.976 69.3984C382.746 66.3623 387.018 61.9613 391.411 58.6129Z" fill="#E0E0E0"/>
<path d="M114.029 278.874C108.003 288.809 112.378 297.195 118.989 304.257C127.984 314.246 137.908 323.417 147.536 332.977C155.238 340.626 151.757 354.891 141.167 360.728C150.011 342.648 148.557 338.904 130.931 322.085C123.646 315.099 117.251 306.945 111.152 298.402C104.258 288.883 107.926 279.219 113.439 270.764C125.691 252.649 138.32 234.845 150.909 216.691C151.96 216.926 152.418 217.94 152.875 218.954C152.996 220.007 153.117 221.06 152.861 221.8C149.559 225.734 145.92 229.707 145.177 235.125C141.388 243.737 134.664 250.552 129.744 258.227C124.784 265.552 120.914 273.462 114.029 278.874Z" fill="#DFDFDF"/>
<path d="M151.231 219.499C151.151 218.797 151.03 217.744 150.95 217.042C144.243 212.124 136.27 208.062 130.83 202.287C119.196 190.112 108.492 177.12 98.0843 163.738C90.4772 153.946 96.2463 144.751 102.297 138.013C107.755 132.054 115.516 128.319 122.482 123.609C115.758 130.424 108.656 136.928 102.686 144.368C100.273 147.133 98.3038 153.759 99.5961 156.099C105.519 166.085 112.669 174.863 119.522 184.031C121.422 182.746 123.483 182.865 124.775 185.206C129.999 192.072 136.409 197.38 143.156 202.65C145.363 207.018 149.309 208.698 153.296 210.729C155.478 211.901 158.077 213.736 156.755 217.087C155.987 219.308 154.544 221.607 151.231 219.499Z" fill="#DEDEDE"/>
<path d="M237.251 26.5337C246.535 21.202 253.296 23.6256 259.179 33.2605C269.356 50.5794 289.519 56.7976 306.307 48.4715C306.197 53.4613 299.81 60.2383 293.411 60.9727C287.308 61.3176 281.286 62.3642 275.144 62.3582C267.416 51.5131 255.753 45.0303 246.839 35.7434C243.324 31.8805 240.158 34.0215 236.695 36.5521C234.498 38.2262 232.368 43.448 228.1 38.9607C226.606 34.8659 230.984 34.3634 232.426 32.0647C234.286 30.4292 235.769 28.4815 237.251 26.5337Z" fill="#D3D3D3"/>
<path d="M74.2883 553.984C84.9265 563.429 94.6751 574.042 106.163 581.967C110.944 584.973 119.418 581.512 126.154 580.739C125.158 578.009 127.731 576.647 128.877 574.738C135.075 572.249 139.306 567.497 143.458 562.044C149.725 554.214 154.82 545.097 162.555 538.165C163.781 536.958 164.927 535.049 167.109 536.22C167.486 536.533 167.486 536.533 167.863 536.845C155.706 552.816 143.886 568.749 130.975 584.096C122.592 594.302 105.149 590.971 97.084 580.165C90.231 570.997 81.7746 562.724 74.2883 553.984Z" fill="#E0E0E0"/>
<path d="M179.131 79.0665C167.933 88.5287 156.775 98.3417 145.537 107.453C138.691 113.216 131.052 118.003 124.126 123.065C131.861 116.133 139.219 108.889 147.371 102.621C157.343 94.3659 168.405 86.6969 179.131 79.0665Z" fill="#DEDEDE"/>
<path d="M210.955 576.339C210.618 576.378 210.282 576.416 209.608 576.494C197.758 565.411 186.285 554.64 174.435 543.557C172.133 541.332 169.83 539.108 167.191 536.922C167.718 532.596 169.577 530.96 172.513 532.756C173.981 533.654 175.153 534.942 175.987 536.268C182.504 545.475 190.543 553.085 199.215 560.266C203.363 563.701 205.907 568.031 210.351 571.076C212.533 572.247 213.152 574.665 210.955 576.339Z" fill="#E0E0E0"/>
<path d="M232.803 32.3776C231.698 34.6375 230.929 36.8589 229.823 39.1189C230.362 40.8347 230.186 42.2769 229.296 43.4456C226.588 46.6006 223.476 46.2467 220.5 44.0997C224.475 40.0882 228.451 36.0768 232.803 32.3776Z" fill="#D7D7D7"/>
<path d="M194.088 66.684C190.666 69.5655 187.283 72.7978 183.86 75.6793C187.283 72.7978 190.706 69.9164 194.088 66.684Z" fill="#DEDEDE"/>
<path d="M492.517 74.3834C515.393 68.5582 522.959 45.2921 538.389 31.0781C548.873 21.3423 554.005 21.4643 563.498 32.818C567.847 38.0071 574.352 41.1712 579.967 45.5039C581.476 46.7529 583.321 47.9632 584.532 49.6017C589.676 55.7663 594.482 61.9694 599.329 68.5235C600.958 70.8252 602.789 74.8813 601.94 76.4008C589.054 94.9446 605.257 102.328 614.628 112.629C621.657 120.355 629.656 127.614 635.754 136.158C637.841 139.473 637.717 147.309 635.345 150.425C624.238 166.632 612.001 181.902 599.763 197.171C587.31 213.532 574.439 229.23 561.985 245.591C560.503 247.539 560.946 251.399 560.595 254.284C563.208 253.273 565.862 252.612 568.059 250.938C574.351 246.305 580.604 241.321 586.519 236.376C598.746 247.772 611.27 258.777 623.497 270.173C628.856 275.246 634.296 281.021 637.796 287.73C639.546 291.084 638.667 298.295 636.295 301.411C630.702 309.164 623.304 316.057 616.916 322.834C612.644 327.235 609.92 333.236 605.905 336.896C601.296 341.336 597.778 346.361 593.883 351.075C589.099 356.956 584.274 362.487 581.711 369.892C581.159 371.022 579.932 372.229 581.4 373.127C582.531 374.064 583.758 372.857 584.688 372.039C585.617 371.221 585.793 369.779 587.06 368.923C589.216 366.898 591.749 365.185 594.469 368.072C595.922 371.816 595.988 375.364 592.943 378.557C577.418 394.915 562.647 411.898 546.745 427.944C543.066 431.566 539.724 435.149 536.045 438.771C533.889 440.796 531.315 442.158 528.973 439.583C526.67 437.358 527.398 434.786 528.841 432.487C533.168 425.592 539.339 419.906 543.249 412.347C545.797 407.788 549.395 403.464 552.28 398.867C552.576 398.478 552.496 397.776 552.792 397.386C552.536 398.127 552.239 398.516 551.983 399.257C548.842 404.595 542.941 406.694 538.629 410.744C528.441 420.09 516.705 427.836 507.689 438.47C504.428 442.755 499.281 445.479 495.265 449.14C480.684 461.834 467.989 476.09 453.409 488.784C440.351 499.882 430.431 514.53 416.579 524.653C415.312 525.509 414.126 527.067 412.483 527.611C409.909 528.973 407.511 528.893 405.842 526.241C404.173 523.588 404.982 521.718 406.801 519.731C418.486 505.591 430.925 492.076 443.404 478.912C447.972 474.121 453.295 469.955 456.315 463.565C457.973 460.175 461.934 459.009 464.347 456.244C472.85 447.091 481.771 438.601 489.521 428.823C501.594 421.038 511.243 409.976 520.556 398.953C522.888 395.486 525.677 393.033 529.221 391.204C533.518 389.999 536.187 386.493 539.353 384.352C547.25 378.824 552.843 371.072 559.568 364.257C570.268 353.429 582.974 345.216 593.634 334.038C601.841 325.275 611.597 318.111 620.598 310.323C624.654 307.014 627.202 302.455 630.504 298.521C631.73 297.314 631.192 295.598 630.357 294.272C629.523 292.945 628.608 290.917 627.476 289.981C614.481 280.807 607.833 264.505 593.651 256.889C591.469 255.717 590.554 253.689 588.965 251.738C584.656 246.9 580.157 246.35 575.589 251.141C565.185 261.578 555.913 272.952 546.681 284.677C541.6 290.949 534.593 295.308 530.684 302.867C529.282 305.517 525.873 305.552 523.571 303.328C521.309 301.455 521.027 298.998 522.765 296.31C524.801 293.232 526.122 289.881 528.198 287.154C528.494 286.765 529.087 285.986 529.047 285.635C527.996 285.4 527.78 286.491 527.147 286.919C506.988 304.52 487.206 322.434 467.464 340.698C460.995 346.773 455.065 354.564 446.254 358.064C445.58 358.141 444.193 357.945 443.896 358.335C438.775 364.255 434.331 361.21 429.469 357.502C427.207 355.628 425.281 353.716 425.97 350.793C426.618 347.519 429.11 345.455 432.438 344.718C444.105 342.312 450.236 336.276 452.315 324.661C453.139 319.944 456.426 318.856 459.754 318.119C464.765 317.188 467.851 314.345 469.348 309.551C470.117 307.33 470.886 305.109 472.786 303.824C479.752 299.114 482.41 289.565 490.924 286.455C492.853 279.479 500.735 276.797 501.91 269.196C502.126 268.105 503.056 267.287 503.649 266.508C504.538 265.339 505.508 264.872 506.478 264.405C512.515 260.513 519.386 257.947 521.868 249.84C522.596 247.268 525.426 245.166 528.336 243.765C535.464 240.459 540.706 235.591 544.615 228.032C546.273 224.642 550.073 222.072 552.445 218.956C556.421 214.945 559.642 210.309 564.035 206.96C571.741 205.72 576.148 199.526 581.43 195.009C584.557 192.517 586.592 189.44 588.25 186.05C592.05 183.48 594.638 179.273 597.98 175.689C605.594 167.705 614.501 162.061 622.613 155.442C630.428 149.212 630.538 144.222 623.55 136.847C618.487 131.385 612.238 127.48 608.321 120.108C605.696 115.077 599.784 111.134 594.922 107.425C588.256 102.858 586.938 97.3206 588.827 89.9934C589.34 88.5125 590.148 86.6421 589.61 84.9263C588.75 80.4033 582.702 78.2532 580.074 82.1101C575.963 87.9147 569.469 90.7931 565.735 96.91C565.439 97.2995 565.183 98.04 564.509 98.1173C546.359 109.444 532.141 125.296 516.712 139.51C503.478 152.05 489.828 163.927 477.429 177.793C475.313 180.169 472.861 182.584 469.548 180.475C462.746 177.701 456.914 174.46 458.898 164.988C458.858 164.637 458.441 163.974 458.024 163.311C456.058 161.048 451.518 160.147 452.759 156.094C454.256 151.3 456.387 146.079 460.106 142.808C464.162 139.498 467.424 135.213 472.274 132.879C473.878 131.984 475.737 130.348 475.873 128.555C476.495 122.084 481.777 117.567 480.258 110.276C479.559 107.156 482.092 105.443 485.083 104.745C486.766 104.551 488.787 104.319 490.35 103.074C492.21 101.438 492.979 99.2167 491.727 97.2273C490.017 94.2238 488.615 96.8733 487.348 97.7298C476.326 105.75 466.179 115.447 455.197 123.818C450.804 127.166 446.155 131.255 439.771 129.143C439.353 128.48 438.976 128.168 438.896 127.466C437.9 124.736 439.005 122.476 440.905 121.192C445.891 117.064 449.665 111.298 456.28 109.472C462.558 107.685 467.127 102.895 471.439 98.8447C478.581 92.6922 486.894 87.8273 492.111 79.7628C492.96 78.2432 491.371 76.2925 492.517 74.3834Z" fill="#C8C8C8"/>
<path d="M630.535 456.368C637.941 464.406 645.091 473.184 653.13 480.794C660.792 488.091 670.313 493.753 677.679 501.44C687.01 511.39 694.482 522.976 703.773 532.575C710.761 539.95 705.735 543.727 701.342 547.075C676.252 566.308 650.368 584.567 625.277 603.8C605.213 619.257 586.321 636.002 566.633 651.771C555.988 660.103 548.934 649.181 542.147 643.56C534.646 637.666 529.517 628.656 522.057 623.113C510.906 615.149 501.864 622.586 492.742 629.322C477.03 641.079 460.982 652.876 444.476 663.658C435.273 669.692 424.858 674.087 414.619 677.04C410.321 678.244 403.615 673.325 399.764 669.501C390.93 660.916 383.305 662.858 375.57 669.789C369.061 675.513 362.553 681.238 356.044 686.962C349.239 693.076 341.519 697.162 333.798 701.247C327.344 704.477 318.482 701.583 313.635 695.029C316.102 689.769 320.923 693.126 324.211 692.038C329.167 693.602 332.671 691.422 335.676 687.878C343.045 686.676 343.169 678.841 346.727 674.166C348.21 672.218 348.938 669.646 349.33 667.113C350.274 663.449 353.401 660.957 356.512 661.311C361.388 662.173 363.841 659.759 365.796 655.979C366.092 655.59 366.726 655.162 367.399 655.084C372.868 655.168 377.785 656.381 383.334 657.166C385.395 657.285 387.2 658.144 389.221 657.912C390.231 657.797 390.905 657.719 391.915 657.603C393.936 657.371 395.66 657.529 396.872 659.167C401.934 664.63 408.399 667.443 415.161 669.867C419.404 671.158 423.068 670.382 426.073 666.837C426.882 664.967 428.606 665.124 430.21 664.229C434.387 661.972 439.358 660.691 439.724 654.96C439.859 653.167 441.166 652.662 442.473 652.156C449.344 649.59 455.637 644.957 461.97 640.675C463.87 639.39 466.78 637.99 463.346 634.829C462.592 634.204 462.431 632.801 462.647 631.709C463.551 627.695 472.93 620.219 476.971 619.755C477.645 619.678 478.318 619.601 478.655 619.562C481.053 619.642 482.601 621.242 484.15 622.842C481.093 619.993 484.812 616.722 484.113 613.603C483.092 607.676 487.389 606.472 490.973 604.994C495.23 603.439 499.73 603.989 501.64 608.747C504.09 615.221 507.322 616.627 513.6 614.84C518.235 613.597 523.07 614.109 526.665 618.673C529.426 621.912 533.844 621.76 536.901 624.609C537.318 625.272 537.776 626.286 537.896 627.339C538.178 629.795 539.134 632.174 541.356 633.697C547.349 638.342 551.859 644.934 559.967 647.203C564.884 648.417 565.773 647.248 566.718 643.584C568.24 641.988 569.386 640.078 571.286 638.794C575.031 638.72 577.524 636.656 579.222 633.617C581.81 629.409 586.58 626.373 587.66 620.916C587.876 619.825 589.102 618.618 590.072 618.151C597.994 615.819 601.567 608.299 606.729 602.729C610.367 598.757 614.463 595.798 613.739 589.482C613.995 588.741 613.955 588.39 614.588 587.962C618.468 586.095 622.389 584.578 625.017 580.721C627.645 576.864 632.265 578.467 636.01 578.393C636.684 578.316 638.368 578.122 638.327 577.772C637.829 576.407 636.94 577.575 635.93 577.691C633.235 578 630.918 578.622 629.249 575.969C627.539 572.966 629.695 570.941 631.178 568.993C636.892 562.293 642.27 555.632 647.944 548.582C651.839 543.869 656.488 539.78 660.005 534.754C664.413 528.56 673.964 528.531 680.037 533.877C682.676 536.063 685.989 538.171 688.332 540.747C689.127 541.722 690.595 542.62 691.821 541.413C693.047 540.206 692.212 538.879 691.418 537.904C690.206 536.265 688.658 534.666 687.15 533.417C680.282 527.094 676.244 518.67 673.553 510.091C673.055 508.726 671.884 507.438 671.09 506.463C670.672 505.8 670.295 505.487 670.215 504.786C669.369 497.417 662.567 494.642 659.188 488.986C657.936 486.997 654.77 489.138 652.628 488.317C651.578 488.082 650.904 488.16 649.854 487.925C644.062 485.034 640.01 479.455 633.882 476.604C633.168 476.33 632.791 476.018 632.077 475.744C627.592 472.348 627.285 466.695 625.037 461.976C624.836 460.221 625.389 459.091 626.655 458.235C627.761 455.975 629.067 455.47 630.535 456.368Z" fill="#C7C7C7"/>
<path d="M630.536 456.368C629.902 456.796 628.932 457.263 628.339 458.042C622.79 457.257 622.186 451.993 621.029 447.86C619.872 443.727 623.119 442.287 626.069 441.238C633.534 437.892 637.483 430.684 643.399 425.739C646.822 422.858 651.16 422.004 654.125 418.109C657.683 413.434 658.049 407.704 653.228 404.346C643.626 397.983 637.406 388.386 630.256 379.608C628.668 377.657 626.782 376.096 624.264 374.963C621.031 373.556 618.055 371.409 615.672 368.483C612.037 363.568 608.588 363.252 603.939 367.341C600.853 370.184 598.144 373.339 595.099 376.533C593.279 378.519 591.42 380.155 588.74 377.618C590.142 374.969 591.504 371.968 592.906 369.319C595.468 361.914 601.128 357.709 607.245 354.519C614.035 351.251 618.977 355.661 624.296 360.383C630.37 365.73 636.403 370.726 642.179 376.462C645.236 379.311 647.066 383.367 650.123 386.216C654.769 391.015 660.721 395.309 663.467 401.394C665.297 405.45 664.836 413.324 662.167 416.83C653.865 427.737 644.055 437.396 635.038 448.03C632.545 450.093 631.898 453.367 630.536 456.368Z" fill="#C7C7C7"/>
<path d="M313.852 693.938C322.484 700.769 330.768 701.595 339.931 695.211C344.66 691.824 350.521 689.374 355.668 686.65C342.823 705.545 325.054 708.295 308.302 693.153C298.418 684.333 287.267 676.369 279.283 666.264C272.47 657.447 269.121 646.1 274.191 633.786C275.768 629.694 273.4 623.922 272.499 619.048C264.164 611.828 255.788 604.257 247.452 597.036C245.772 588.341 244.091 579.646 241.778 571.379C241.697 570.678 236.982 571.219 234.248 571.177C232.739 569.928 232.201 568.212 233.01 566.342C233.603 565.563 233.9 565.173 234.493 564.394C241.69 555.747 246.229 556.648 250.549 567.529C250.629 568.23 251.047 568.893 251.127 569.595C251.907 573.416 245.589 574.853 248.133 579.182C251.552 585.189 255.564 590.417 259.617 595.996C266.012 604.15 275.116 609.149 280.285 618.51C281.417 619.447 281.874 620.461 282.372 621.826C281.845 626.152 286.707 629.86 284.536 634.731C280.992 636.56 280.048 640.224 278.013 643.302C275.168 648.25 277.376 652.618 280.217 656.558C286.235 664.4 293.52 671.385 299.538 679.227C303.133 683.792 306.054 688.434 311.469 691.012C313.193 691.169 314.027 692.496 313.852 693.938Z" fill="#D2D2D2"/>
<path d="M650.083 385.865C642.421 378.567 635.392 370.841 627.137 364.323C610.21 350.623 609.914 351.013 592.866 368.967C590.157 372.123 587.488 375.628 584.322 377.77C582.422 379.054 578.853 377.686 576.118 377.645C576.51 375.111 575.393 371.328 576.916 369.732C588.224 355.28 599.909 341.14 611.93 326.961C613.116 325.403 615.056 324.469 616.956 323.185C608.061 334.871 599.166 346.558 590.27 358.244C589.381 359.413 588.909 361.245 588.059 362.764C590.12 362.883 592.558 363.314 594.499 362.381C597.705 360.591 599.66 356.811 602.988 356.074C608.592 354.364 616.137 351.72 619.867 354.492C630.223 361.48 639.514 371.079 648.725 379.977C649.56 381.303 649.505 383.798 650.083 385.865Z" fill="#D4D4D4"/>
<path d="M364.733 75.8957C371.604 73.3295 378.475 70.7633 385.346 68.197C400.183 54.7621 414.562 40.3131 430.61 28.5167C434.707 25.5579 446.897 27.714 451.462 31.8118C465.574 44.7683 477.57 60.1008 490.456 74.2646C486.939 79.2901 483.505 76.1291 480.825 73.5925C477.728 70.3927 475.008 67.5053 471.062 65.8251C470.348 65.5515 469.594 64.927 469.176 64.2639C464.439 52.7199 454.837 46.3561 446.125 38.8237C443.485 36.638 441.142 34.0627 437.87 32.3052C434.974 30.86 432.993 31.4428 430.837 33.4679C422.725 40.0872 415.031 47.3697 407.376 55.003C406.15 56.2103 405.26 57.379 405.462 59.1335C404.422 64.9411 401.457 68.8366 396.27 71.2095C392.349 72.7261 388.886 75.2566 386.972 79.3871C385.273 82.4262 382.74 84.139 379.709 84.4869C375.667 84.9507 371.747 86.4672 367.409 87.3206C358.437 89.417 351.811 85.2002 347.22 77.9057C340.92 67.6077 331.021 61.6335 322.645 54.0623C319.211 50.9013 314.105 53.976 310.118 51.9449C309.364 51.3204 308.61 50.696 308.786 49.2537C315.821 39.2027 324.538 37.8468 333.924 45.302C339.58 49.9856 343.713 56.2661 349.625 60.2093C355.537 64.1525 357.851 72.4194 364.733 75.8957Z" fill="#C8C8C8"/>
<path d="M402.526 57.3372C412.04 48.0684 421.137 38.1363 431.445 29.8428C433.938 27.7791 441.75 30.4377 445.184 33.5988C457.828 45.6572 469.543 58.5335 482.227 70.9428C484.153 72.8549 487.642 73.5211 490.16 74.6541C490.834 74.5768 491.844 74.4608 492.518 74.3835C493.473 76.7625 494.806 79.4537 495.761 81.8326C492.946 81.0892 490.332 82.1002 487.598 82.0585C481.792 82.0139 477.428 79.6705 472.567 75.9623C463.181 68.5071 459.75 56.4577 450.068 49.3921C445.96 46.3083 440.963 44.3932 437.409 40.1795C436.197 38.5409 433.92 39.5133 432.317 40.4084C425.823 43.2868 420.54 47.8038 416.389 53.2575C414.61 55.5948 412.871 58.283 410.298 59.6449C407.428 61.3964 404.1 62.1338 402.526 57.3372Z" fill="#C7C7C7"/>
<path d="M66.758 521.074C73.4861 505.37 80.174 489.315 87.5757 473.534C95.4899 456.272 103.701 438.62 112.329 421.632C116.238 414.073 121.575 407.061 126.199 399.775C134.812 385.632 143.803 371.802 150.988 357.112C157.109 345.033 156.453 333.376 144.388 323.384C134.207 314.954 126.142 304.147 118.158 294.043C115.735 290.766 115.508 285.814 114.647 281.291C116.09 278.993 114.933 274.859 119.014 274.746C121.91 276.192 120.805 278.452 120.373 280.634C119.886 285.312 119.696 289.6 124.476 292.606C127.789 294.715 128.69 299.589 131.747 302.437C139.746 309.696 146.815 317.773 154.22 325.811C156.563 328.386 158.529 330.649 158.635 334.548C158.833 345.191 163.614 348.197 173.059 344.269C174.366 343.763 175.295 342.946 176.225 342.128C179.351 339.636 182.679 338.899 186.032 341.358C188.295 343.231 188.884 351.341 186.728 353.366C183.009 356.637 182.306 362.406 177.119 364.778C174.545 366.14 172.294 370.309 174.205 375.067C176.035 379.124 174 382.201 169.918 382.314C162.092 382.501 158.695 388.58 156.348 394.893C154.514 399.725 152.695 401.711 147.954 399.056C146.863 398.47 145.099 397.962 143.752 398.116C143.078 398.193 142.741 398.232 142.068 398.309C142.405 398.271 142.741 398.232 143.375 397.804C144.385 397.688 145.436 397.923 146.486 398.158C148.588 398.628 150.649 398.747 151.644 401.476C152.64 404.206 151.117 405.803 148.921 407.477C148.288 407.906 147.695 408.685 147.061 409.113C145.242 411.099 143.005 412.423 140.392 413.434C142.709 412.812 144.865 410.787 147.222 410.516C149.917 410.207 152.274 409.937 153.647 412.979C155.02 416.021 154.211 417.891 151.26 418.941C149.28 419.524 149.144 421.317 149.009 423.11C148.874 424.903 147.688 426.461 146.044 427.006C140.062 428.403 136.328 434.52 130.764 436.581C129.121 437.125 127.719 439.774 125.537 438.603C125.537 438.603 125.537 438.603 126.251 438.876C128.432 440.048 129.051 442.466 128.242 444.336C125.775 449.596 121.005 452.632 117.03 456.644C115.21 458.63 113.23 459.213 114.643 462.606C115.975 465.297 114.196 467.635 111.246 468.684C105.008 470.822 102.285 476.823 99.1034 481.81C95.3696 487.927 90.5449 493.458 86.4743 499.613C83.2932 504.6 79.7753 509.626 77.3483 515.237C76.7553 516.016 76.1623 516.795 75.5693 517.574C72.5785 518.273 70.6237 522.053 67.0948 521.036C67.135 521.387 66.758 521.074 66.758 521.074Z" fill="#C8C8C8"/>
<path d="M130.924 577.703C129.32 578.598 127.757 579.844 126.154 580.739C124.807 580.894 123.796 581.01 122.449 581.164C120.941 579.915 120.443 578.55 121.629 576.992C123.408 574.655 123.086 571.848 123.815 569.275C124.071 568.535 124.367 568.145 124.664 567.756C128.639 563.744 131.187 559.186 130.839 553.182C130.678 551.778 131.231 550.648 131.784 549.518C137.89 540.285 141.437 529.568 144.31 518.928C144.566 518.188 144.526 517.837 144.782 517.096C150.065 512.579 153.205 507.242 153.41 500.108C153.505 497.964 155.365 496.328 156.551 494.77C165.516 477.743 175.195 460.989 184.496 443.923C190.401 432.935 197.019 422.221 202.924 411.234C211.376 395.687 221.714 381.702 229.829 366.194C231.272 363.896 233.051 361.559 236.283 362.965C239.636 365.424 238.652 368.737 237.25 371.387C231.008 382.413 224.727 393.088 219.159 404.038C218.903 404.778 218.269 405.206 217.676 405.985C218.31 405.557 219.32 405.441 219.994 405.364C222.648 404.704 224.844 403.03 225.909 400.419C227.999 394.846 232.89 392.863 236.529 388.89C237.755 387.682 239.479 387.84 240.987 389.089C241.767 392.91 241.119 396.184 239.798 399.536C239.501 399.925 238.868 400.353 238.235 400.782C233.304 402.414 231.093 406.934 228.842 411.103C226.038 416.402 224.324 422.287 220.389 426.649C210.052 440.635 201.976 456.493 192.77 471.415C186.448 481.74 180.92 493.04 173.885 503.091C169.316 507.881 165.085 512.633 164.88 519.767C164.609 523.353 164.298 526.589 170.4 526.244C176.503 525.899 181.917 528.477 186.427 535.07C192.189 543.652 199.258 551.729 208.362 556.727C210.167 557.587 211.042 559.264 211.917 560.941C214.838 565.583 218.353 569.446 224.158 569.491C226.556 569.571 229.291 569.613 228.723 573.588C222.929 579.586 217.123 579.542 211.979 573.377C208.007 568.5 203.699 563.662 198.837 559.954C190.205 553.123 182.799 545.085 176.027 536.619C172.472 532.405 166.963 531.971 163.998 535.866C153.323 549.89 143.066 564.577 130.924 577.703Z" fill="#C8C8C8"/>
<path d="M118.758 275.487C117.275 277.435 115.793 279.382 114.31 281.33C114.23 280.628 114.109 279.576 114.028 278.874C123.571 263.913 133.074 248.602 142.618 233.641C145.583 229.746 148.171 225.538 150.045 221.057C150.342 220.667 150.638 220.278 151.231 219.499C150.572 216.73 150.506 213.182 148.917 211.232C146.871 208.267 143.221 206.197 140.542 203.661C141.391 202.141 142.401 202.025 143.829 202.572C150.59 204.996 156.759 208.199 163.008 212.103C165.566 213.587 166.899 216.278 165.537 219.279C163.879 222.669 162.975 226.683 160.226 229.487C152.827 236.38 147.732 245.497 139.916 251.727C137.423 253.791 135.941 255.739 135.63 258.974C131.343 266.221 126.182 271.791 118.758 275.487Z" fill="#D3D3D3"/>
<path d="M121.102 581.319C116.226 580.457 109.154 581.268 106.434 578.381C92.8741 564.294 80.2041 549.039 67.8306 533.394C65.8245 530.781 66.8641 524.973 66.7176 520.724C68.9397 522.246 69.8549 524.274 70.1368 526.731C71.6158 533.671 76.5176 537.73 80.2333 543.348C85.9551 551.579 94.7226 556.616 100.404 564.497C102.828 567.774 106.141 569.882 108.861 572.77C110.449 574.72 112.053 573.825 113.696 573.281C114.707 573.165 115.757 573.4 116.471 573.674C119.111 575.859 121.373 577.733 121.102 581.319Z" fill="#C8C8C8"/>
<path d="M133.152 258.192C140.308 249.194 147.465 240.196 154.245 230.885C157.466 226.249 159.933 220.989 162.777 216.04C158.037 213.385 153.256 210.378 148.515 207.723C145.956 206.239 143.438 205.106 140.582 204.012C133.674 197.339 126.43 190.704 119.522 184.031C115.389 177.751 110.959 171.86 107.837 165.463C105.212 160.432 101.712 153.723 103.29 149.631C104.827 145.189 111.739 142.973 116.468 139.586C124.068 134.448 131.667 129.309 138.513 123.547C155.586 108.788 172.619 93.6792 189.652 78.5701C193.371 75.2991 196.633 71.014 200.312 67.3921C203.142 65.2898 205.514 62.1734 208.721 60.3832C210.62 59.0986 212.52 57.814 214.742 59.3366C218.916 65.968 218.605 69.2033 212.945 73.4081C209.482 75.9386 207.945 80.3813 204.442 82.561C202.878 83.8069 204.387 85.0559 205.221 86.3822C208.183 91.375 207.455 93.9473 202.308 96.6711C201.338 97.138 199.694 97.6821 199.141 98.8121C196.161 105.553 190.004 108.393 185.395 112.833C180.53 118.013 173.579 119.877 167.919 124.082C160.737 129.884 152.006 134.085 143.949 138.21C141.712 139.533 141.065 142.807 138.114 143.857C132.63 146.619 126.543 144.118 121.396 146.842C118.782 147.853 115.926 146.759 113.313 147.77C108.045 149.441 107.437 153.066 110.022 157.747C118.435 174.557 131.793 186.889 145.367 198.13C155.924 206.873 168.719 214.292 184.024 207.914C186.301 206.941 188.995 206.632 190.368 209.674C191.701 212.365 189.881 214.352 187.981 215.636C176.824 225.449 165.208 234.248 154.01 243.711C148.728 248.228 144.2 253.369 139.254 257.847C137.018 259.171 135.495 260.767 133.152 258.192Z" fill="#CBCBCB"/>
<path d="M214.527 60.4278C209.676 62.7621 205.163 65.0578 200.312 67.392C206.916 59.5237 213.56 52.0063 220.164 44.138C222.441 43.1657 225.014 41.8037 227.291 40.8314C229.297 43.4453 227.815 45.393 226.332 47.3408C223.448 51.9381 217.964 54.7005 215.497 59.961C215.2 60.3505 214.863 60.3892 214.527 60.4278Z" fill="#D3D3D3"/>
<path d="M136.997 140.074C151.05 131.706 165.858 123.963 179.454 114.581C186.42 109.871 190.545 101.22 197.094 95.8469C204.277 90.0453 205.719 87.7466 195.293 86.0991C195.469 84.6569 195.227 82.5515 196.157 81.7337C201.143 77.6063 206.883 74.1034 211.788 69.2742C213.607 67.2878 213.838 63.3506 214.863 60.3888C222.477 52.4045 228.96 43.4836 237.369 36.4747C242.354 32.3472 243.701 32.1926 248.644 36.6027C257.396 44.486 266.446 51.9798 275.199 59.8632C283.875 58.1564 292.55 56.4496 300.809 54.0797C303.126 53.4582 304.488 50.4578 306.307 48.4714C306.644 48.4327 306.981 48.394 307.654 48.3167C307.911 47.5763 308.584 47.499 309.002 48.1621C309.379 48.4744 309.756 48.7866 310.51 49.4111C312.395 50.9723 312.677 53.4286 311.154 55.0254C307.772 58.2578 305.264 63.1673 300.293 64.4489C293.382 66.6642 286.214 69.62 278.563 68.365C270.912 67.11 264.418 69.9885 257.331 73.646C246.067 79.5606 236.513 88.4785 225.209 94.0422C223.605 94.9372 222.002 95.8323 220.439 97.0783C211.869 102.684 203.38 108.991 194.016 113.621C184.652 118.251 176.284 125.61 167.794 131.917C161.798 136.161 154.59 138.766 148.217 142.697C144.377 144.915 139.838 144.014 136.997 140.074Z" fill="#C7C7C7"/>
<path d="M308.705 48.5518C308.369 48.5905 308.032 48.6291 307.358 48.7064C316.645 34.4863 329.941 34.3824 340.012 47.8028C347.619 57.5953 356.156 66.57 364.396 75.9342C356.021 68.3631 347.348 61.1815 339.606 53.1822C327.177 40.0324 319.486 38.4265 308.705 48.5518Z" fill="#D3D3D3"/>
<path d="M150.045 221.057C147.457 225.264 145.206 229.433 142.618 233.641C145.206 229.433 147.794 225.226 150.045 221.057Z" fill="#DEDEDE"/>
<path d="M274.902 60.253C267.859 55.3731 259.549 51.3496 253.732 45.2624C244.858 36.3263 239.053 36.2817 231.343 46.4099C226.855 51.9023 220.482 55.8334 214.526 60.4277C218.893 53.8827 222.924 47.3763 227.25 40.4804C227.884 40.0522 228.854 39.5853 229.447 38.8062C235.578 32.7697 242.64 25.9154 250.598 32.8234C260.065 40.9803 267.039 51.201 274.902 60.253Z" fill="#CBCBCB"/>
<path d="M130.924 577.703C137.366 568.431 143.849 559.51 150.332 550.589C153.89 545.914 158.122 541.162 162.057 536.8C168.068 529.711 173.537 529.794 180.526 537.169C192.24 550.045 204.548 562.142 217.489 573.811C219.414 575.723 224.938 573.312 228.683 573.238C229.788 570.978 231.015 569.77 233.574 571.254C228.302 581.814 220.516 582.352 211.628 576.262C202.754 567.326 193.503 558.077 184.63 549.141C181.115 545.278 177.897 541.026 174.423 537.514C173.252 536.226 170.261 536.925 168.2 536.806C160.37 545.882 152.58 555.308 144.75 564.384C139.845 569.213 135.196 573.302 130.924 577.703Z" fill="#D7D7D7"/>
<path d="M233.237 571.293C231.594 571.837 229.95 572.381 228.346 573.276C208.007 568.5 198.046 550.09 184.271 537.095C180.837 533.934 175.247 532.798 171.517 530.026C168.164 527.567 163.181 522.806 163.573 520.273C164.869 513.725 169.316 507.881 172.336 501.491C174.518 502.662 174.423 504.807 173.237 506.365C170.649 510.572 170.876 515.524 168.962 519.654C167.816 521.563 168.354 523.279 169.902 524.879C171.451 526.479 172.718 525.622 174.321 524.727C181.489 521.771 186.862 523.999 191.116 531.332C196.205 539.991 203.369 545.924 210.83 551.467C213.806 553.614 215.772 555.877 218.115 558.452C222.881 564.305 227.34 564.504 231.747 558.31C237.934 549.778 241.938 540.075 247.411 531.27C250.592 526.283 254.527 521.921 256.577 515.998C257.818 511.944 263.463 510.585 266.102 512.771C269.496 515.581 268.174 518.933 266.099 521.66C264.063 524.737 262.742 528.089 261.797 531.752C261.285 533.233 259.802 535.181 261.23 535.728C262.361 536.665 263.844 534.717 264.397 533.587C267.578 528.6 272.941 524.785 275.785 519.837C281.433 509.59 290.475 502.152 297.295 493.193C306.19 481.506 313.995 469.234 324.102 459.186C337.295 446.295 347.014 429.892 360.961 417.626C364.047 414.783 366.715 411.277 368.67 407.498C373.132 398.809 380.315 393.007 386.366 386.269C391.231 381.089 395.759 375.947 399.87 370.143C410.8 355.378 423.239 341.863 436.85 329.636C437.146 329.246 437.82 329.169 438.493 329.091C439.84 328.937 441.228 329.133 442.414 327.575C449.234 318.615 457.682 311.957 466.051 304.597C469.77 301.326 472.695 297.08 476.414 293.809C484.661 285.397 492.949 277.335 501.237 269.273C502.76 267.677 503.906 265.767 506.208 267.992C500.574 275.393 494.604 282.833 488.97 290.235C483.633 297.247 478.673 304.571 473.713 311.895C472.23 313.843 471.542 316.766 469.939 317.661C454.809 322.597 453.495 340.879 442.136 348.938C440.869 349.794 439.306 351.04 437.919 350.844C435.521 350.764 433.38 349.943 431.278 349.473C431.439 350.877 431.385 353.371 432.098 353.645C435.331 355.052 438.604 356.809 442.052 357.124C443.776 357.282 445.515 354.594 447.415 353.309C449.798 356.235 449.406 358.769 446.994 361.534C445.471 363.131 444.069 365.781 442.466 366.676C431.875 372.513 425.553 382.838 417.306 391.25C410.285 398.455 402.51 405.036 395.906 412.904C386.633 424.279 376.19 434.365 366.5 445.076C353.764 458.981 341.069 473.237 328.374 487.493C315.976 501.359 303.617 515.576 291.636 530.105C283.846 539.532 276.096 549.309 266.798 557.487C263.376 560.368 261.084 564.186 257.702 567.419C256.179 569.015 254.656 570.612 252.474 569.441C250.172 567.216 251.372 562.812 248.099 561.055C244.827 559.297 241.217 557.578 239.087 562.8C238.278 564.671 237.052 565.878 236.243 567.748C236.067 569.191 235.851 570.282 235.338 571.763C233.911 571.216 233.574 571.254 233.237 571.293Z" fill="#C7C7C7"/>
<path d="M136.997 140.074C152.478 132.253 168.336 124.745 183.697 115.872C197.79 107.855 211.089 98.8625 224.429 90.2211C235.235 83.2926 245.961 75.6622 257.225 69.7477C263.005 66.5956 270.711 65.3557 277.19 65.323C290.863 65.5314 301.992 61.41 309.836 49.4885C327.082 42.1765 333.393 58.5169 342.227 67.1021C352.609 77.2871 360.619 90.5885 376.195 80.6239C386.071 74.5131 393.524 65.1252 402.149 57.025C405.692 55.1962 409.653 54.0306 412.779 51.5387C420.339 46.0493 426.566 37.8688 434.743 34.797C438.327 33.3192 446.366 40.9289 451.012 45.7285C459.926 55.0155 467.694 66.2115 477.201 74.7193C481.766 78.8171 489.336 79.3703 495.761 81.8326C479.497 94.7204 463.232 107.608 446.968 120.496C444.475 122.56 442.736 125.248 440.58 127.273C427.819 137.981 416.647 150.64 402.337 159.748C396.638 163.602 390.682 168.196 386.194 173.689C385.304 174.857 384.038 175.714 382.771 176.57C373.271 182.993 363.732 189.065 356.198 197.751C355.902 198.141 355.309 198.92 354.635 198.997C342.039 202.221 334.45 213.402 324.317 220.253C317.311 224.612 310.681 229.284 304.469 234.619C303.203 235.475 301.936 236.331 300.71 237.539C292.96 247.316 280.821 251.553 271.9 260.043C262.346 268.961 252.414 277.567 241.608 284.495C227.299 293.604 216.207 306.964 202.274 316.385C198.138 318.993 194.836 322.927 192.207 326.784C187.84 333.329 181.548 337.962 175.632 342.907C172.209 345.788 167.615 347.382 163.252 345.039C158.888 342.695 157.098 338.99 157.881 333.923C158.232 331.039 157.237 328.309 155.688 326.709C151.541 323.274 148.956 318.594 144.135 315.236C137.051 310.005 131.787 302.788 127.156 295.143C126.739 294.48 126.618 293.427 125.904 293.153C118.308 289.404 120.614 282.74 121.277 276.62C122.06 271.553 126.654 269.959 129.323 266.453C135.293 259.013 142.314 251.807 149.497 246.006C157.905 238.997 165.896 231.325 175.14 225.642C183.75 220.388 189.478 210.842 197.631 204.574C197.927 204.184 198.897 203.718 198.143 203.093C197.766 202.781 197.133 203.209 196.5 203.637C192.875 204.764 188.538 205.618 185.29 207.057C181.073 208.963 176.574 208.413 172.277 209.617C171.307 210.084 169.919 209.888 168.828 209.302C157.623 203.833 145.312 200.624 137.207 189.467C134.783 186.19 131.349 183.029 128.293 180.18C120.334 173.272 115.165 163.911 109.363 154.978C106.899 151.35 110.362 148.819 112.855 146.756C115.011 144.731 117.962 143.681 120.575 142.67C125.627 142.09 131.312 141.082 136.997 140.074Z" fill="#B8B8B8"/>
<path d="M241.068 389.791C237.173 394.504 233.319 399.568 229.006 403.619C224.398 408.058 219.371 411.835 214.386 415.962C213.752 416.39 210.857 414.945 210.816 414.594C211.545 412.022 211.937 409.488 213.379 407.19C221.278 392.773 229.178 378.357 236.741 363.979C235.826 361.951 236.298 360.119 238.198 358.835C243.169 357.553 243.279 352.563 244.183 348.549C245.559 342.703 248.821 338.418 253.631 335.732C254.897 334.876 256.541 334.332 257.35 332.461C260.249 325.018 265.748 319.41 269.738 312.553C270.843 310.293 272.582 307.605 276.111 308.622C277.956 309.832 277.524 312.015 277.725 313.769C278.289 318.682 280.552 320.555 284.392 318.337C291.991 313.198 301.476 309.621 306.235 300.542C308.23 297.114 311.437 295.324 313.472 292.246C323.553 279.001 333.675 266.107 344.847 253.449C351.491 245.931 357.004 237.477 362.477 228.672C365.954 223.296 370.146 218.193 374.714 213.402C380.469 207.053 386.223 200.705 391.601 194.044C399.35 184.266 410.494 177.299 415.146 164.322C416.171 161.36 419.001 159.258 421.911 157.857C426.088 155.6 427.248 150.845 429.54 147.027C431.319 144.69 426.146 144.217 426.538 141.683C429.518 134.942 433.709 129.839 441.375 128.248C459.026 115.557 476.638 102.515 494.626 89.7844C495.893 88.928 497.537 88.3838 498.844 87.8783C498.331 89.3592 497.859 91.191 497.683 92.6332C496.482 97.0373 495.659 101.754 494.458 106.158C494.202 106.898 492.935 107.754 492.302 108.183C489.688 109.194 487.034 109.854 484.38 110.514C486.859 111.296 489.337 112.078 491.856 113.211C492.233 113.523 492.69 114.537 492.69 114.537C491.801 115.706 490.911 116.875 489.981 117.692C487.313 121.198 484.644 124.704 481.599 127.898C476.693 132.727 472.165 137.869 466.883 142.386C455.388 152.237 455.791 155.746 468.841 162.425C469.219 162.738 469.5 165.194 469.204 165.583C463.585 170.139 460.579 173.684 471.005 175.331C471.342 175.293 471.543 177.047 472.001 178.061C471.745 178.802 471.448 179.191 471.152 179.581C460.521 185.067 452.651 193.792 448.133 204.976C446.947 206.534 445.721 207.741 444.158 208.987C437.759 209.722 433.703 213.031 432.071 219.618C431.774 220.007 431.141 220.436 430.844 220.825C426.843 221.64 423.636 223.43 422.099 227.873C421.034 230.484 418.837 232.158 416.264 233.52C411.077 235.893 407.775 239.827 405.011 245.477C402.247 251.127 397.302 255.605 393.447 260.669C386.708 270.331 377.585 277.066 370.132 286.454C365.685 292.297 360.86 297.828 355.321 303.086C347.33 310.758 340.51 319.717 332.479 327.038C325.674 333.152 320.043 331.665 314.051 327.02C303.911 318.941 296.205 320.181 287.027 329.411C281.826 334.63 279.856 341.255 277.55 347.919C276.324 349.126 275.434 350.295 274.585 351.814C263.859 359.445 257.658 370.822 251.04 381.536C247.401 385.509 246.241 390.264 241.068 389.791Z" fill="#CCCCCC"/>
<path d="M251.599 567.763C270.049 547.159 288.835 526.516 307.244 505.56C327.177 483.008 346.772 460.494 367.081 438.254C387.054 416.053 407.444 394.515 427.793 372.626C433.844 365.888 440.272 359.461 446.364 353.074C450.204 350.856 454.421 348.95 457.803 345.717C474.836 330.608 491.156 315.225 508.189 300.116C516.557 292.757 524.925 285.397 533.671 278.349C534.897 277.142 537.335 277.573 539.356 277.341C538.547 279.212 537.738 281.082 536.889 282.602C533.371 287.627 529.853 292.653 526.335 297.678C525.742 298.457 526.577 299.784 526.697 300.836C528.004 300.331 529.688 300.137 530.281 299.358C545.052 282.376 559.823 265.393 574.593 248.411C581.534 240.504 587.446 244.447 592.886 250.222C595.229 252.797 597.275 255.762 599.955 258.298C610.297 268.133 620.935 277.577 630.643 287.839C640.769 298.765 628.831 304.757 623.67 310.326C609.331 325.126 593.524 339.028 578.391 352.853C565.118 365.042 551.548 377.62 537.897 389.497C536.037 391.132 533.046 391.831 530.433 392.842C529.547 385.122 534.533 380.995 540.016 378.233C544.193 375.976 546.902 372.821 548.439 368.378C550.731 364.56 553.48 361.756 557.36 359.888C559.974 358.877 561.794 356.891 563.573 354.553C568.276 347.97 574.609 343.688 580.108 338.079C592.034 326.045 606.424 317.638 618.728 305.916C624.266 300.659 625.13 296.294 619.434 291.259C613.738 286.225 609.052 281.074 605.216 274.404C600.962 267.071 592.652 263.047 586.242 257.739C583.602 255.554 580.989 256.565 580.004 259.877C578.763 263.93 575.933 266.033 571.973 267.198C565.021 269.063 563.132 276.39 558.523 280.83C552.095 287.256 548.347 296.218 540.41 301.395C535.977 304.393 534.264 310.278 531.797 315.538C530.435 318.539 528.656 320.876 525.786 322.627C519.413 326.559 514.211 331.777 511.272 338.869C510.463 340.74 508.94 342.337 507.377 343.583C503.28 346.542 501.11 351.412 497.768 354.996C490.49 362.941 485.852 373.073 477.821 380.394C468.523 388.571 461.15 398.661 454.532 409.375C451.903 413.232 449.652 417.401 445.516 420.009C444.882 420.437 444.209 420.514 443.952 421.255C438.224 430.8 429.936 438.862 423.83 448.095C423.237 448.874 423.101 450.667 422.428 450.745C413.536 453.543 411.969 463.677 406.134 469.324C401.229 474.153 396.284 478.631 392.092 483.734C389.976 486.11 388.197 488.448 387.59 492.073C387.063 496.399 383.775 497.488 379.909 496.509C375.667 495.219 373.917 491.864 372.8 488.082C371.684 484.299 373.463 481.962 376.292 479.859C378.826 478.147 380.901 475.42 381.926 472.458C384.232 465.794 388.424 460.691 393.369 456.213C398.018 452.124 399.988 445.499 404.973 441.371C408.356 438.139 410.944 433.931 414.246 429.997C418.774 424.856 423.679 420.026 425.905 412.661C426.849 408.997 429.558 405.842 433.358 403.273C438.128 400.237 439.127 394.078 442.349 389.442C444.977 385.585 447.309 382.118 451.108 379.549C453.345 378.226 455.542 376.551 456.31 374.33C460.747 362.444 472.388 356.842 478.669 346.167C480.961 342.348 482.835 337.867 487.012 335.61C487.012 335.61 487.645 335.182 487.902 334.441C488.198 334.052 488.238 334.403 487.565 334.48C486.932 334.908 487.902 334.441 487.268 334.87C485.072 336.544 482.916 338.569 481.81 340.829C479.006 346.128 474.91 349.087 469.642 350.758C467.999 351.302 466.018 351.885 464.832 353.443C457.284 364.975 446.935 372.917 436.29 381.25C431.601 384.987 430.305 391.536 425.993 395.586C425.4 396.365 425.224 397.807 424.254 398.274C415.578 399.981 414.645 409.687 409.025 414.242C399.687 422.069 394.537 433.681 384.323 439.831C383.69 440.259 382.72 440.726 382.464 441.466C375.871 455.377 362.586 461.523 352.479 471.571C345.162 479.166 335.501 484.186 330.944 495.019C328.773 499.89 323.073 503.743 319.098 507.755C313.303 513.753 307.885 520.063 303.181 526.647C299.07 532.451 295.256 537.866 288.843 541.446C285.299 543.275 284.179 548.381 281.47 551.536C276.982 557.028 270.609 560.96 266.875 567.076C261.659 575.141 262.318 577.909 269.266 584.933C276.214 591.957 281.895 599.838 288.844 606.862C289.221 607.174 289.598 607.486 289.301 607.876C288.61 619.687 298.398 630.651 293.329 642.965C292.304 645.927 293.34 649.008 295.009 651.66C299.062 657.239 302.521 663.597 309.659 666.333C313.942 667.974 317.673 670.746 319.287 675.893C319.866 677.96 321.751 679.521 323.259 680.77C327.407 684.205 329.764 683.934 332.986 679.298C336.463 673.922 339.146 667.57 342.247 661.881C347.086 653.505 353.892 647.391 359.525 639.989C364.269 633.757 371.84 634.31 377.616 640.046C380.296 642.583 383.313 645.081 385.736 648.358C388.16 651.635 391.648 652.301 395.313 651.525C402.978 649.934 409.619 651.305 414.546 658.561C417.387 662.501 420.795 662.465 424.474 658.843C428.193 655.572 431.455 651.287 434.797 647.704C438.341 645.875 441.965 644.748 445.79 645.376C447.716 647.288 447.661 649.783 445.384 650.755C439.94 653.869 438.348 660.806 432.905 663.92C431.301 664.815 430.196 667.075 429.387 668.945C425.089 670.149 420.495 671.743 416.197 672.947C409.3 672.317 406.474 665.531 401.276 661.861C398.677 660.027 396.199 659.245 393.047 658.54C392.373 658.617 391.363 658.733 390.689 658.81C383.225 662.156 378.418 655.952 372.964 653.023C369.314 650.953 367.55 650.445 364.046 652.625C357 656.633 353.683 663.413 350.326 669.842C347.01 676.622 342.602 682.816 339.286 689.596C335.446 691.815 331.606 694.033 327.429 696.29C319.064 694.761 314.137 687.505 307.767 682.548C302.906 678.84 299.23 673.574 294.705 669.827C289.05 665.143 285.59 658.785 281.161 652.894C275.102 644.702 280.6 639.093 284.711 633.289C283.595 629.506 282.141 625.762 281.025 621.98C282.295 612.235 275.372 608.408 269.083 604.152C262.472 597.09 256.157 589.638 250.772 581.368C248.268 577.389 250.182 573.258 251.086 569.244C249.659 568.697 249.834 567.255 251.599 567.763Z" fill="#BDBDBD"/>
<path d="M443.85 646.31C440.643 648.1 437.396 649.539 434.526 651.291C432.495 645.48 433.871 639.634 438.344 636.987C442.481 634.379 445.904 631.498 449.582 627.876C458.383 618.333 468.354 610.079 477.909 601.161C485.94 593.839 494.349 586.831 501.626 578.885C505.225 574.561 511.166 572.813 515.518 569.114C518.011 567.05 525.567 570.449 526.94 573.491C527.936 576.221 527.504 578.404 524.93 579.765C519.447 582.528 517.814 589.115 512.748 592.54C510.214 594.253 509.768 599.282 511.734 601.545C514.534 605.134 518.345 608.607 523.357 607.676C525.377 607.445 527.438 607.564 529.459 607.332C532.113 606.672 534.295 607.843 535.924 610.145C542.4 619.001 552.137 623.571 559.84 631.22C563.314 634.732 566.817 632.552 569.445 628.695C571.777 625.228 573.018 621.175 575.687 617.669C578.059 614.552 580.094 611.475 582.924 609.372C588.246 605.206 593.192 600.728 595.121 593.752C595.377 593.011 595.674 592.622 596.307 592.193C605.47 585.809 611.118 575.562 619.527 568.553C620.753 567.346 622.019 566.489 622.828 564.619C626.617 556.007 634.257 551.219 639.594 544.207C641.373 541.87 644.203 539.768 645.942 537.08C650.148 529.131 655.485 522.119 663.125 517.332C668.528 513.867 667.034 509.772 663.319 504.155C658.391 496.899 651.333 494.865 644.788 491.35C644.074 491.077 643.657 490.413 642.983 490.491C630.859 491.882 626.202 481.04 618.621 474.444C615.981 472.259 615.835 468.009 617.156 464.658C618.478 461.307 617.482 458.577 615.436 455.612C610.589 449.058 611.764 441.457 618.434 437.137C626.41 432.31 633.929 426.47 639.9 419.03C641.086 417.472 642.689 416.577 644.252 415.331C649.359 412.256 649.67 409.021 645.105 404.923C643.597 403.674 642.089 402.425 640.324 401.916C636.378 400.236 634.035 397.661 632.205 393.605C628.664 386.545 622.335 381.939 616.342 377.294C611.104 373.274 602.333 377.124 600.861 385.115C599.47 393.807 593.73 397.31 588.166 399.37C579.988 402.442 576.295 408.91 571.51 414.792C568.842 418.298 566.469 421.414 562.629 423.632C560.73 424.917 558.87 426.552 558.101 428.774C557.589 430.255 556.739 431.774 555.433 432.28C545.787 434.453 542.415 443.728 536.661 450.077C529.976 457.244 523.966 464.333 516.11 470.212C510.45 474.416 507.672 482.912 499.71 484.893C499.036 484.97 498.484 486.1 498.268 487.191C497.283 490.504 496.298 493.817 492.257 494.28C487.542 494.822 482.827 495.363 478.679 491.928C476.794 490.367 475.205 488.416 476.351 486.507C478.602 482.338 479.386 477.271 483.522 474.663C490.448 469.602 495.489 462.979 500.866 456.318C501.163 455.929 501.796 455.501 502.429 455.072C502.133 455.462 501.796 455.501 501.5 455.89C493.684 462.12 487.08 469.988 479.642 476.53C476.219 479.412 473.807 482.177 473.697 487.167C473.587 492.157 470.124 494.688 465.329 494.527C460.91 494.679 457.246 495.455 453.406 497.673C451.169 498.996 449.31 500.632 450.009 503.751C450.627 506.169 451.96 508.86 450.1 510.495C446.974 512.987 445.06 517.118 440.425 518.361C433.137 520.264 427.935 525.483 423.07 530.663C417.572 536.271 414.416 544.455 406.575 547.488C406.238 547.526 405.942 547.916 405.942 547.916C397.409 562.76 381.47 569.567 370.177 581.173C368.654 582.77 366.795 584.405 364.895 585.69C360.839 589 357.782 586.151 355.399 583.225C353.016 580.299 353.03 577.453 355.779 574.649C357.639 573.013 358.745 570.753 358.463 568.297C357.562 563.423 360.352 560.97 363.101 558.166C370.378 550.22 379.541 543.836 384.852 533.627C386.51 530.237 388.586 527.51 392.21 526.383C393.517 525.878 394.447 525.06 395 523.93C399.206 515.981 406.509 511.232 411.926 504.922C416.158 500.17 420.013 495.106 423.908 490.393C428.396 484.901 433.718 480.735 438.624 475.905C442.936 471.855 447.922 467.728 449.217 461.18C449.865 457.906 453.153 456.817 455.389 455.494C460.496 452.419 464.552 449.11 467.356 443.811C468.502 441.902 469.648 439.992 471.588 439.059C477.071 436.296 481.007 431.934 484.565 427.259C487.233 423.753 489.551 423.132 492.944 425.942C493.9 428.321 491.623 429.293 490.733 430.462C478.334 444.328 465.599 458.233 453.2 472.099C438.982 487.952 424.387 503.492 410.506 519.306C409.28 520.513 409.562 522.97 409.09 524.801C410.693 523.906 412.377 523.713 413.603 522.506C434.868 502.645 456.052 482.082 477.654 462.182C500.819 441.037 524.064 420.593 547.605 399.759C551.028 396.878 554.034 393.333 557.12 390.491C557.713 389.711 559.477 390.22 560.487 390.104C560.271 391.195 560.096 392.638 559.503 393.417C550.432 406.545 541.32 419.323 532.249 432.452C531.36 433.621 531.224 435.414 530.752 437.246C532.059 436.74 533.783 436.898 534.376 436.119C552.61 416.605 570.844 397.092 589.037 377.228C594.239 372.01 599.064 366.478 604.683 361.923C606.542 360.287 610.544 359.473 612.011 360.371C619.889 366.577 627.431 372.822 634.379 379.846C641.287 386.519 647.305 394.36 654.213 401.033C660.326 406.731 662.358 412.542 655.89 418.617C646.632 427.145 636.203 434.386 627.699 443.539C625.583 445.915 627.776 453.129 628.38 458.393C628.124 459.133 627.908 460.224 627.315 461.004C626.301 470.008 627.095 470.983 634.867 473.291C638.96 479.22 642.756 485.54 651.015 483.17C651.688 483.092 652.699 482.976 653.372 482.899C658.058 488.05 663.633 492.031 668.656 497.143C670.622 499.406 672.251 501.708 673.583 504.399C673.986 507.908 674.726 511.378 675.842 515.161C677.336 519.256 676.311 522.217 672.174 524.825C665.761 528.406 660.222 533.663 656.569 540.482C654.318 544.651 650.141 546.908 647.472 550.414C641.461 557.503 637.296 565.802 630.531 572.267C629.601 573.085 629.008 573.864 628.792 574.955C626.149 581.658 621.203 586.136 615.504 589.99C611.916 600.356 604.181 607.288 596.783 614.181C587.525 622.709 581.621 633.697 572.7 642.187C571.514 643.745 570.624 644.914 569.438 646.472C563.523 651.417 556.842 649.695 551.859 644.934C546.5 639.861 541.437 634.398 536.078 629.325C535.701 629.013 535.324 628.701 534.57 628.076C533.695 626.399 531.593 625.929 530.382 624.291C525.495 617.386 518.894 616.366 511.525 617.567C507.524 618.382 504.925 616.547 502.758 612.529C496.135 599.424 497.468 602.115 486.918 608.304C484.344 609.665 482.862 611.613 482.174 614.536C481.485 617.459 479.249 618.783 477.309 619.716C471.488 622.518 467.256 627.269 462.944 631.32C462.648 631.709 461.678 632.176 461.758 632.878C461.755 641.766 453.335 642.732 449.144 647.835C447.837 648.341 445.816 648.573 443.85 646.31Z" fill="#BBBBBB"/>
<path d="M441.078 128.638C436.469 133.078 432.197 137.479 427.588 141.919C428.503 143.947 427.694 145.817 426.172 147.414C422.87 151.348 417.939 152.981 413.762 155.238C404.438 160.218 399.006 169.374 390.813 175.292C389.883 176.11 389.708 177.552 388.401 178.057C379.469 180.505 375.006 189.194 368.161 194.957C365.668 197.02 363.512 199.045 360.602 200.446C355.078 202.857 350.766 206.908 346.534 211.659C340.442 218.047 333.22 223.498 325.123 227.271C315.718 231.55 307.068 236.454 303.979 248.185C303.034 251.848 299.868 253.989 296.419 253.674C288.809 252.77 285.748 258.81 281.059 262.547C280.129 263.365 280.17 263.716 281.557 263.912C286.096 264.813 290.636 265.715 287.993 272.417C288.329 272.379 288.329 272.379 288.626 271.989C290.526 270.704 292.29 271.213 293.542 273.202C295.171 275.504 294.362 277.374 292.503 279.01C284.552 287.033 282.096 298.336 278.845 308.663C278.252 309.443 277.242 309.558 276.231 309.674C265.974 324.361 255.38 339.087 245.164 354.125C243.721 356.423 242.279 358.722 240.837 361.021C234.709 358.169 238.011 354.235 240.006 350.806C242.553 346.247 246.273 342.976 249.157 338.379C254.59 329.223 260.022 320.067 266.208 311.536C267.098 310.367 267.61 308.886 268.123 307.405C268.595 305.574 269.027 303.391 267.182 302.181C265.674 300.932 264.03 301.476 262.427 302.371C260.823 303.266 259.26 304.512 258.074 306.07C244.731 323.6 229.503 339.568 214.234 355.186C205.394 364.378 196.971 374.232 188.13 383.424C179.923 392.187 172.133 401.614 164.343 411.04C161.971 414.157 159.599 417.273 156.81 419.726C148.738 426.697 142.888 435.189 137.079 444.033C135.636 446.332 133.817 448.318 131.998 450.304C124.384 458.289 117.901 467.21 111.754 476.092C109.679 478.819 107.603 481.546 105.151 483.96C97.1594 491.632 92.9388 502.427 84.9476 510.099C82.7914 512.124 81.2943 516.917 76.8904 514.223C80.3277 508.496 87.0926 502.031 86.8253 496.729C85.7782 487.606 93.1326 489.25 95.7609 485.394C96.0574 485.004 95.9366 483.951 95.8963 483.6C94.443 479.857 103.298 467.819 107.932 466.576C109.576 466.032 111.139 464.786 112.783 464.242C111.234 462.642 109.389 461.432 107.841 459.832C106.333 458.583 104.784 456.983 102.939 455.773C105.256 455.151 107.654 455.232 109.554 453.947C114.997 450.834 120.36 447.018 125.763 443.554C124.296 442.656 123.084 441.018 121.656 440.47C119.137 439.337 116.282 438.243 113.764 437.11C116.458 436.801 119.529 436.804 122.143 435.793C127.37 433.771 132.221 431.436 137.031 428.751C137.031 428.751 136.116 426.723 135.995 425.67C135.834 424.267 135.512 421.46 136.185 421.382C138.125 420.449 141.709 418.971 142.167 419.985C150.312 431.493 147.625 414.026 151.948 416.018C150.817 415.081 149.942 413.404 149.268 413.481C147.585 413.675 145.765 415.661 144.041 415.503C139.959 415.616 136.094 414.638 132.308 414.361C134.545 413.038 137.159 412.027 139.395 410.704C140.999 409.809 142.683 409.616 143.909 408.408C146.025 406.032 147.427 403.383 149.166 400.695C146.215 401.744 143.561 402.404 140.611 403.454C138.967 403.998 137.364 404.893 135.72 405.437C135.383 405.476 134.171 403.838 134.171 403.838C135.398 402.63 136.544 400.721 138.187 400.177C148.763 397.186 158.248 393.608 160.503 380.551C160.759 379.811 164.127 379.424 166.107 378.841C168.424 378.22 170.782 377.949 173.099 377.328C171.335 376.819 169.61 376.661 168.479 375.725C167.725 375.1 167.82 372.956 167.996 371.514C168.307 368.279 168.955 365.005 169.603 361.731C169.819 360.639 170.749 359.821 171.678 359.004C176.071 355.655 181.218 352.932 185.234 349.271C186.164 348.453 184.791 345.411 184.509 342.955C182.906 343.85 181.599 344.355 179.995 345.25C178.729 346.107 177.327 348.756 176.613 348.483C170.606 346.684 159.803 344.724 159.44 341.566C157.05 323.709 142.948 316.795 133.456 305.441C125.97 296.701 115.493 288.66 120.321 274.241C125.105 268.359 129.93 262.828 134.715 256.946C145.913 247.484 157.07 237.671 168.605 228.17C174.817 222.836 181.07 217.852 187.282 212.517C188.212 211.699 188.428 210.608 189.317 209.439C188.266 209.204 186.798 208.306 186.165 208.734C172.921 215.232 160.072 210.307 150.645 202.501C135.94 190.324 122.933 175.107 111.273 159.736C103.249 149.28 107.993 143.048 121.842 141.814C103.813 154.193 121.227 163.215 125.939 171.563C131.067 180.573 139.74 187.754 147.954 193.922C152.102 197.357 158.581 197.324 163.875 198.85C164.589 199.123 165.896 198.618 166.273 198.93C176.545 214.105 186.586 200.509 196.649 198.999C201.364 198.458 205.958 196.864 210.593 195.621C207.251 199.204 203.989 203.489 200.27 206.76C178.547 225.607 156.745 243.752 135.022 262.599C130.966 265.909 127.071 270.622 125.574 275.416C124.333 279.469 126.068 285.669 128.869 289.258C137.27 300.026 146.939 309.938 155.34 320.705C157.723 323.632 158.247 328.193 160.037 331.898C161.41 334.94 162.863 338.684 165.382 339.817C168.237 340.912 172.952 340.371 175.148 338.696C191.548 324.016 207.154 308.359 223.594 294.029C237.878 281.724 252.956 270.395 267.657 258.753C282.992 246.683 298.703 234.925 314.118 223.557C327.337 213.863 341.31 204.793 354.529 195.099C365.511 186.728 376.075 177.694 387.017 168.973C398.929 159.784 410.464 150.283 422.375 141.095C428.924 135.721 435.85 130.66 442.439 125.638C440.997 127.936 441.037 128.287 441.078 128.638Z" fill="#C8C8C8"/>
<path d="M441.221 207.191C442.488 206.335 443.378 205.166 444.644 204.31C450.318 197.259 457.918 192.121 462.797 184.095C464.24 181.796 467.648 181.761 469.387 179.072C469.723 179.034 470.06 178.995 470.734 178.918C481.595 169.494 492.416 159.72 502.94 150.335C522.722 132.422 542.841 114.47 562.583 96.2058C567.825 91.3379 572.313 85.8455 577.219 81.0163C580.305 78.1735 584.145 75.9552 587.608 73.4246C589.775 77.4421 594.501 82.9435 593.395 85.2035C585.737 101.725 600.23 106.106 607.299 114.182C613.654 121.985 621.276 128.932 627.928 136.345C633.785 142.784 633.756 148.475 626.951 154.589C614.863 165.22 602.856 176.552 590.809 187.534C582.441 194.894 575.284 203.892 565.744 209.964C562.065 213.586 558.009 216.896 554.33 220.518C550.315 224.178 545.585 227.565 542.364 232.201C538.846 237.227 533.362 239.989 529.427 244.352C522.069 251.595 515.425 259.113 508.067 266.357C507.434 266.785 506.464 267.252 505.871 268.031C489.592 283.764 473.353 299.849 456.737 315.621C450.902 321.268 445.027 326.564 439.151 331.86C437.01 331.039 436.472 329.324 437.24 327.102C437.929 324.179 438.617 321.256 440.854 319.933C455.972 308.954 467.24 294.151 480.473 281.611C495.269 267.825 511.951 255.601 524.404 239.24C531.224 230.28 540.844 224.91 547.368 216.34C555.67 205.432 567.567 199.09 575.573 188.572C580.061 183.079 586.017 178.485 591.717 174.631C601.89 168.131 608.508 157.417 618.721 151.267C622.225 149.088 622.792 145.112 619.775 142.614C613.285 136.604 607.98 129.036 602.123 122.598C598.232 118.423 592.817 115.844 588.589 111.708C584.321 107.221 582.827 103.126 582.52 97.4728C582.318 95.7183 583.127 93.8479 581.322 92.9884C579.181 92.1677 577.995 93.7259 576.432 94.9718C573.602 97.0742 571.607 100.503 569.531 103.23C563.898 110.631 554.292 113.156 548.995 120.518C543.361 127.92 536.018 132.318 529.132 137.73C525.036 140.689 521.357 144.311 519.267 149.883C517.649 153.624 513.392 155.179 510.225 157.32C507.355 159.072 504.862 161.136 504.295 165.111C504.119 166.554 503.607 168.035 502.34 168.891C495.334 173.25 489.916 179.56 484.04 184.856C477.828 190.191 473.959 198.101 466.575 202.148C464.972 203.043 464.54 205.226 464.108 207.409C463.676 209.591 462.531 211.5 460.59 212.434C457.303 213.522 455.228 216.249 452.775 218.664C448.583 223.767 443.221 227.582 439.326 232.295C431.832 241.332 422.333 247.755 414.422 256.129C413.196 257.336 411.336 258.972 411.538 260.726C411.885 266.73 408.719 268.871 403.627 269.1C402.28 269.255 400.259 269.487 399.706 270.617C396.309 276.695 387.93 278.012 385.704 285.378C385.232 287.21 383.588 287.754 381.945 288.298C374.953 289.811 370.384 294.602 366.651 300.719C364.912 303.407 362.419 305.471 360.303 307.847C351.503 317.389 343.457 327.556 333.862 336.123C327.057 342.237 312.184 346.433 301.761 335.897C297.573 332.111 293.667 330.782 289.018 334.871C283.952 338.296 279.68 342.697 276.916 348.347C275.313 349.242 273.925 349.046 272.714 347.408C280.881 338.293 288.67 328.867 297.591 320.377C299.748 318.352 306.388 319.723 309.701 321.831C323.034 330.967 328.678 329.608 339.177 317.026C355.35 297.394 372.654 278.699 389.54 259.34C396.803 254.24 401.804 247.267 407.855 240.529C414.539 233.362 421.641 226.859 429.119 220.668C433.055 216.306 436.155 210.617 441.221 207.191Z" fill="#BFBFBF"/>
<path d="M508.404 266.318C523.713 251.051 539.358 235.745 554.667 220.479C539.021 235.784 523.713 251.051 508.404 266.318Z" fill="#C7C7C7"/>
<path d="M550.325 369.939C543.721 377.808 537.077 385.325 530.473 393.193C527.684 395.646 525.231 398.061 522.442 400.514C517.631 403.2 514.868 408.849 509.183 409.857C506.086 406.658 508.579 404.594 510.358 402.257C518.781 392.402 527.958 383.172 538.266 374.878C540.126 373.243 540.935 371.372 542.418 369.425C545.046 365.568 546.77 365.725 550.325 369.939Z" fill="#BBBBBB"/>
<path d="M509.52 409.819C513.953 406.822 518.009 403.512 522.442 400.515C511.998 410.601 501.177 420.376 490.733 430.462C491.246 428.981 492.135 427.813 492.648 426.332C492.608 425.981 492.567 425.63 492.904 425.591C498.106 420.373 501.719 413.203 508.846 409.896C509.183 409.858 509.52 409.819 509.52 409.819Z" fill="#BDBDBD"/>
<path d="M565.744 209.964C574.113 202.604 582.441 194.894 590.809 187.534C583.235 195.869 579.593 208.73 565.744 209.964Z" fill="#C7C7C7"/>
<path d="M615.72 588.899C632.325 567.084 648.175 544.645 666.329 524.43C672.676 517.302 673.379 511.533 673.84 503.659C680.814 513.879 687.788 524.1 694.802 534.672C696.471 537.324 697.884 540.717 698.287 544.226C698.408 545.279 694.271 547.887 692.507 547.378C690.406 546.908 688.736 544.256 686.177 542.772C680.346 539.53 673.478 533.208 668.844 534.451C661.892 536.316 655.881 543.405 650.72 548.975C644.628 555.362 639.372 563.076 633.698 570.126C633.105 570.905 632.929 572.348 632.376 573.478C634.397 573.246 636.121 573.403 638.102 572.82C641.429 572.083 644.339 570.682 647.627 569.594C646.979 572.868 646.789 577.156 645.01 579.493C643.864 581.403 639.742 581.165 637.047 581.474C634.016 581.822 630.608 581.857 627.577 582.205C628.829 584.195 630.081 586.184 631.373 588.524C631.751 588.837 631.535 589.928 631.535 589.928C629.851 590.121 627.87 590.704 626.146 590.546C622.361 590.27 618.872 589.604 615.72 588.899Z" fill="#C7C7C7"/>
<path d="M663.7 560.994C660.427 559.237 657.531 557.792 654.973 556.308C657.249 555.335 659.486 554.012 661.763 553.04C664.337 551.678 667.287 550.628 669.861 549.266C667.975 547.705 666.09 546.144 664.205 544.583C663.828 544.27 663.289 542.555 663.626 542.516C664.596 542.049 665.863 541.193 666.24 541.505C669.93 543.925 673.62 546.346 676.973 548.805C677.35 549.118 677.592 551.223 676.959 551.651C672.903 554.961 668.766 557.569 663.7 560.994Z" fill="#C7C7C7"/>
<path d="M673.503 503.698C666.891 496.635 660.28 489.572 653.332 482.548C660.28 489.572 666.891 496.635 673.503 503.698Z" fill="#C7C7C7"/>
<path d="M651.311 482.78C642.122 485.968 637.261 482.26 635.163 472.901C640.321 476.22 645.816 479.5 651.311 482.78Z" fill="#C7C7C7"/>
<path d="M634.826 472.94C632.011 472.197 627.593 472.348 626.718 470.671C625.385 467.98 626.626 463.927 626.937 460.691C629.778 464.632 632.282 468.61 634.826 472.94Z" fill="#C7C7C7"/>
<path d="M251.599 567.763C250.966 568.191 249.996 568.658 249.403 569.437C245.918 559.883 241.298 558.28 235.488 567.124C237.996 562.214 240.8 556.915 243.307 552.006C243.604 551.616 244.237 551.188 244.911 551.111C240.408 559.449 261.922 556.624 251.599 567.763Z" fill="#C8C8C8"/>
<path d="M75.9204 514.69C86.9719 500.978 98.3601 487.228 109.452 473.868C131.339 447.536 152.809 420.541 175.073 394.521C197.633 368.112 220.988 342.679 243.966 316.933C250.947 309.377 258.722 302.796 266.497 296.215C267.764 295.359 269.825 295.478 271.509 295.285C271.67 296.688 272.248 298.755 271.359 299.924C262.65 316.21 253.605 332.536 244.896 348.823C242.942 352.602 241.404 357.045 239.826 361.137C238.56 361.993 237.67 363.162 236.404 364.018C229.112 374.81 221.82 385.601 214.905 396.705C201.452 419.224 188.336 441.705 175.26 464.537C169.275 474.823 164.004 485.382 158.733 495.942C153.396 502.954 152.045 511.997 147.799 519.595C144.632 521.736 142.557 524.462 142.326 528.4C142.191 530.193 141.341 531.712 140.829 533.193C135.558 543.753 131.714 554.859 127.534 566.005C127.021 567.486 127.519 568.85 127.007 570.331C123.166 572.55 118.99 574.807 115.15 577.025C114.476 577.102 113.466 577.218 112.792 577.296C107.971 573.938 104.039 569.412 99.811 565.276C89.5096 555.793 80.1783 545.842 72.3698 534.296C71.9525 533.632 71.5754 533.32 71.1581 532.657C69.2471 527.899 65.989 523.296 71.2714 518.779C72.5379 517.922 72.6734 516.129 73.1858 514.648C74.2365 514.883 75.2468 514.767 75.9204 514.69Z" fill="#BCBCBC"/>
<path d="M73.5629 514.96C65.0411 535.847 83.9781 543.273 92.204 555.483C97.9258 563.714 106.141 569.882 113.129 577.257C110.193 575.46 106.624 574.093 103.944 571.556C93.4816 560.669 83.0191 549.782 73.4864 538.078C69.8916 533.513 68.7896 526.885 66.4613 521.464C68.9139 519.049 71.07 517.024 73.5629 514.96Z" fill="#C8C8C8"/>
<path d="M148.942 386.855C147.756 388.413 147.203 389.543 146.53 389.62C145.142 389.424 144.052 388.838 142.961 388.252C143.554 387.473 143.729 386.031 144.403 385.954C145.75 385.799 147.178 386.346 148.942 386.855Z" fill="#C8C8C8"/>
<path d="M287.188 330.814C292.698 331.249 300.067 330.047 303.797 332.819C313.937 340.898 324.418 340.051 337.274 327.199C345.185 318.825 352.678 309.788 360.629 301.765C366.761 295.729 374.36 290.59 380.452 284.203C385.317 279.023 389.01 272.555 393.458 266.712C394.644 265.154 397.756 265.507 399.736 264.925C402.39 264.264 404.707 263.643 407.361 262.983C406.446 260.955 405.194 258.965 404.616 256.899C404.158 255.885 404.253 253.741 405.183 252.923C413.712 246.967 426.268 243.392 430.434 235.093C435.962 223.793 447.211 220.724 453.452 209.698C461.649 194.892 478.693 185.825 491.252 173.363C503.475 160.939 514.15 146.915 526.413 134.842C543.285 118.329 561.328 103.104 578.995 87.567C580.854 85.9315 583.885 85.5836 586.203 84.9621C586.821 87.3797 588.531 90.3832 587.722 92.2536C583.11 105.582 593.777 109.335 600.685 116.008C609.181 124.631 617.975 132.866 625.878 142.269C627.05 143.556 624.447 150.61 621.658 153.063C605.595 167.705 589.114 181.684 573.051 196.327C560.371 207.737 547.69 219.146 535.427 231.219C523.757 242.513 512.544 254.821 500.874 266.115C481.846 284.653 462.737 302.489 443.709 321.027C441.257 323.441 440.73 327.768 439.071 331.158C420.959 351.724 402.846 372.29 385.07 392.817C364.288 416.889 343.17 440.999 322.765 465.383C307.779 483.457 294.22 502.078 279.61 520.464C273.639 527.904 268.006 535.306 261.995 542.395C261.105 543.564 257.778 544.301 256.647 543.364C255.516 542.428 254.48 539.347 254.992 537.866C257.379 531.904 260.439 525.864 262.826 519.902C263.338 518.421 263.81 516.589 264.323 515.108C262.719 516.004 260.362 516.274 259.513 517.794C250.643 532.677 242.527 548.185 232.904 562.443C227.647 570.157 221.061 566.291 215.621 560.516C205.119 549.278 194.239 537.728 183.103 526.919C181.554 525.319 177.89 526.095 175.155 526.054C172.757 525.973 169.43 526.711 168.636 525.735C167.047 523.785 166.307 520.314 167.036 517.742C168.412 511.896 170.502 506.323 172.215 500.438C183.417 482.088 194.618 463.737 205.82 445.387C210.147 438.491 214.433 431.244 218.76 424.348C225.148 417.571 229.314 409.271 234.234 401.596C235.083 400.077 235.595 398.596 236.822 397.389C243.169 390.261 247.712 382.274 253.305 374.521C259.195 366.379 265.005 357.536 270.181 349.12C270.774 348.341 271.664 347.172 272.257 346.393C273.563 345.888 274.533 345.421 275.8 344.564C278.589 342.111 281.379 339.658 282.62 335.605C283.806 334.047 285.288 332.099 287.188 330.814Z" fill="#B7B7B7"/>
<path d="M270.599 349.783C259.492 365.99 248.346 381.845 237.239 398.052C238.641 395.402 240.003 392.402 241.405 389.752C249.29 378.182 257.215 366.962 265.1 355.392C266.246 353.483 268.442 351.808 270.599 349.783Z" fill="#BCBCBC"/>
<path d="M127.344 570.293C130.811 558.874 133.9 547.142 138.08 535.997C140.467 530.035 144.659 524.932 148.096 519.205C141.192 536.351 134.288 553.497 127.344 570.293Z" fill="#C8C8C8"/>
<path d="M237.239 398.052C231.093 406.934 224.987 416.168 218.841 425.05C224.987 416.168 231.093 406.934 237.239 398.052Z" fill="#BCBCBC"/>
<path d="M148.135 519.556C151.668 511.684 155.537 503.774 159.07 495.903C155.537 503.774 151.668 511.684 148.135 519.556Z" fill="#C8C8C8"/>
<path d="M398.285 392.011C396.52 391.503 394.419 391.033 392.318 390.563C393.463 388.654 394.569 386.394 396.132 385.148C400.269 382.54 404.782 380.244 408.959 377.987C409.929 377.52 411.357 378.068 412.407 378.303C412.744 378.264 412.986 380.369 412.649 380.408C407.96 384.146 403.27 387.884 398.285 392.011Z" fill="#C8C8C8"/>
<path d="M371.558 426.72C369.552 424.106 367.667 422.545 367.923 421.804C370.215 417.986 372.506 414.168 375.215 411.013C375.808 410.234 378.704 411.679 380.428 411.837C379.202 413.044 377.975 414.251 377.126 415.771C375.468 419.161 373.769 422.2 371.558 426.72Z" fill="#C8C8C8"/>
<path d="M334.04 465.511C334.04 465.511 333.286 464.887 333.246 464.536C336.724 459.16 340.498 453.394 344.312 447.979C344.312 447.979 346.831 449.112 347.625 450.087C348.419 451.062 349.038 453.48 348.405 453.908C344.133 458.309 339.403 461.696 334.04 465.511Z" fill="#C8C8C8"/>
<path d="M318.878 485.027C317.033 483.817 315.942 483.231 315.188 482.607C318.611 479.725 322.371 476.805 325.834 474.275C326.17 474.236 327.342 475.523 328.433 476.109C325.347 478.952 322.301 482.146 318.878 485.027Z" fill="#C8C8C8"/>
<path d="M361.155 437.157C359.27 435.596 357.802 434.698 356.293 433.449C358.153 431.813 359.555 429.164 361.576 428.932C363.596 428.7 365.562 430.963 367.744 432.134C365.844 433.419 363.648 435.093 361.155 437.157Z" fill="#C8C8C8"/>
<path d="M295.98 511.475C294.553 510.928 293.799 510.303 293.085 510.03C295.578 507.966 298.071 505.902 300.604 504.19C300.9 503.8 302.031 504.737 303.122 505.323C300.629 507.386 298.433 509.061 295.98 511.475Z" fill="#C8C8C8"/>
<path d="M424.206 145.151C425.473 144.294 426.362 143.126 427.629 142.269C429.353 142.427 431.077 142.585 432.424 142.43C434.741 141.809 437.059 141.187 439.672 140.176C437.934 142.864 436.572 145.865 434.833 148.553C428.013 157.513 421.234 166.823 413.997 175.12C404.388 186.533 394.321 196.931 385.048 208.306C373.957 221.666 363.619 235.651 353.241 249.286C348.16 255.557 343.416 261.79 337.958 267.749C323.147 284.381 307.959 300.7 292.434 317.058C288.755 320.68 283.905 323.014 279.431 325.661C278.461 326.128 275.646 325.384 275.606 325.034C275.716 320.044 275.785 314.703 275.895 309.713C276.191 309.323 276.488 308.934 277.081 308.155C280.181 302.466 282.905 296.465 284.578 290.23C286.035 285.085 290.171 282.477 292.759 278.269C298.825 268.685 308.581 261.522 315.023 252.25C323.205 240.29 334.82 231.491 344.173 220.818C354.968 207.847 366.437 194.799 379.238 184.442C391.07 174.551 400.895 162.047 414.315 154.108C418.155 151.889 420.783 148.032 424.206 145.151Z" fill="#DCDCDC"/>
<path d="M469.388 179.072C461.14 187.485 452.893 195.897 444.645 204.31C447.449 199.01 450.59 193.673 453.394 188.374C454.5 186.114 455.027 181.787 456.67 181.243C460.551 179.375 465.009 179.575 469.388 179.072Z" fill="#C8C8C8"/>
<path d="M428.743 220.355C415.55 233.246 402.357 246.137 389.164 259.028C398.004 249.836 407.141 240.255 415.982 231.063C420.294 227.013 424.727 224.016 428.743 220.355Z" fill="#C8C8C8"/>
<path d="M441.222 207.191C437.287 211.553 433.015 215.954 429.08 220.317C433.015 215.954 436.95 211.592 441.222 207.191Z" fill="#C8C8C8"/>
<path d="M550.324 369.939C544.705 374.495 538.709 378.738 533.507 383.957C525.26 392.37 517.43 401.445 509.519 409.819C503.644 415.115 496.974 419.436 492.607 425.981C485.721 431.393 478.499 436.844 472.03 442.919C465.818 448.253 459.646 453.939 454.228 460.249C445.725 469.402 437.679 479.569 429.552 489.034C420.496 499.317 411.102 509.639 401.709 519.96C388.677 534.255 375.645 548.549 363.368 563.468C359.769 567.791 359.227 574.964 357.137 580.537C359.616 581.319 362.929 583.427 364.492 582.181C371.161 577.861 377.791 573.189 382.912 567.268C390.662 557.491 400.835 550.991 409.419 542.539C412.168 539.735 414.46 535.917 417.586 533.425C426.587 525.637 435.629 518.2 444.671 510.763C445.601 509.945 447.204 509.05 447.124 508.348C446.468 496.692 451.117 492.603 463.955 491.485C465.639 491.292 467.177 486.849 468.579 484.199C469.132 483.069 468.593 481.354 469.227 480.925C480.937 469.982 492.648 459.039 504.735 448.409C505.962 447.201 509.194 448.608 511.295 449.078C510.446 450.597 509.26 452.155 508.411 453.675C500.028 463.881 491.308 474.125 482.965 484.681C482.076 485.85 482.735 488.618 482.303 490.801C486.048 490.727 490.668 492.33 493.538 490.578C498.644 487.504 503.213 482.713 507.445 477.961C513.832 471.184 519.843 464.095 526.568 457.279C535.449 448.439 544.706 439.91 553.21 430.757C561.377 421.643 568.413 411.592 576.957 402.79C581.229 398.389 587.844 396.563 593.287 393.45C594.554 392.593 596.79 391.27 596.75 390.919C590.344 376.723 610.144 379.783 609.65 369.53C614.808 372.848 620.559 375.388 625.124 379.486C633.163 387.096 640.906 395.095 648.015 403.522C650.775 406.761 652.942 410.778 654.099 414.912C654.22 415.964 649.033 418.337 646.203 420.44C636.865 428.266 627.526 436.093 617.891 444.309C617.595 444.699 617.002 445.478 617.083 446.18C618.466 455.264 617.614 465.672 621.827 472.654C626.755 479.91 635.98 485.962 644.425 488.192C656.399 491.44 664.318 497.997 668.637 508.877C670.01 511.92 666.99 518.31 664.322 521.816C656.612 531.944 648.149 541.448 639.685 550.952C627.287 564.818 614.134 578.06 602.49 592.55C592.88 603.963 583.688 616.039 575.965 629.013C569.683 639.689 563.54 639.683 554.154 632.228C543.637 623.836 536.18 609.404 519.637 610.948C516.606 611.295 510.869 605.91 510.13 602.44C509.35 598.619 512.154 593.319 514.446 589.501C517.034 585.294 520.793 582.373 523.758 578.478C524.351 577.699 523.356 574.969 523.019 575.008C520.581 574.576 517.052 573.559 515.826 574.767C503.064 585.475 490.68 596.495 478.633 607.477C466.249 618.497 453.825 629.167 441.818 640.499C438.732 643.342 437.612 648.448 435.32 652.266C432.275 655.46 428.852 658.341 426.56 662.159C420.616 672.796 415.769 666.242 410.45 661.52C407.433 659.022 403.205 654.885 400.888 655.507C388.749 659.744 382.097 652.331 375.028 644.254C368.713 636.802 362.596 639.993 358.229 646.538C350.641 657.719 342.002 668.665 335.881 680.744C329.545 693.914 324.225 689.192 317.318 682.519C309.238 674.558 300.566 667.377 294.05 658.17C290.792 653.567 290.916 645.731 289.854 639.454C289.074 635.632 289.979 631.618 289.199 627.797C286.175 610.368 275.888 598.039 263.958 586.254C254.747 577.357 256.636 570.029 268.266 558.385C278.076 548.726 286.338 537.468 295.732 527.146C304.788 516.863 314.262 507.244 323.695 497.273C334.315 485.744 344.557 473.903 355.217 462.725C364.691 453.105 375.336 444.773 384.77 434.802C393.866 424.87 402.169 413.963 410.888 403.719C414.824 399.356 419.473 395.268 423.785 391.218C434.862 380.703 446.236 369.798 457.313 359.283C466.867 350.365 476.085 341.486 485.679 332.919C488.469 330.466 491.298 328.363 494.425 325.872C492.173 330.041 490.299 334.522 487.334 338.417C478.479 350.455 469.287 362.531 460.055 374.256C450.783 385.63 440.756 396.38 432.197 408.028C423.935 419.286 417.559 432.106 409.297 443.364C403.407 451.506 396.008 458.399 389.701 465.878C384.917 471.759 380.469 477.603 376.775 484.07C375.926 485.59 377.716 489.295 379.345 491.597C379.803 492.611 382.16 492.34 383.885 492.498C382.713 491.21 381.542 489.923 380.667 488.246C380.25 487.582 381.099 486.063 381.732 485.635C388.578 479.872 396.177 474.733 402.268 468.346C412.888 456.817 423.05 444.274 432.875 431.77C441.811 420.434 450.329 408.436 459.224 396.749C463.969 390.516 469.507 385.259 474.292 379.377C481.785 370.34 488.861 360.64 496.354 351.603C505.37 340.969 515.1 330.609 524.157 320.326C526.866 317.171 528.484 313.43 531.193 310.275C542.797 295.433 554.778 280.904 566.759 266.375C570.358 262.051 574.293 257.689 579.023 254.302C581.219 252.628 586.648 252.36 588.533 253.921C602.389 267.618 615.612 281.743 628.835 295.869C629.629 296.844 628.805 301.56 627.242 302.806C613.929 314.644 600.197 325.819 586.884 337.657C573.489 348.794 562.075 359.347 550.324 369.939Z" fill="#B5B5B5"/>
<path d="M424.206 145.151C412.239 156.834 400.232 168.167 388.602 179.812C372.404 196.247 356.286 213.384 340.505 230.483C325.317 246.802 310.089 262.771 295.695 280.066C288.498 288.713 283.227 299.272 277.161 308.857C281.206 299.504 285.251 290.152 288.959 280.839C289.808 279.319 289.944 277.526 290.416 275.694C288.772 276.238 287.425 276.393 285.782 276.937C282.494 278.025 279.544 279.075 276.257 280.163C278.332 277.437 280.785 275.022 282.86 272.295C283.453 271.516 284.046 270.737 284.639 269.958C282.538 269.488 280.774 268.979 278.713 268.86C275.305 268.896 271.937 269.283 268.569 269.669C271.318 266.865 273.61 263.047 277.153 261.218C283.863 257.248 291.448 254.956 297.741 250.323C300.907 248.182 301.152 241.399 304.279 238.907C315.854 229.757 328.263 221.933 339.879 213.134C352.087 203.556 363.878 193.315 375.75 183.775C391.933 170.186 407.901 157.688 424.206 145.151Z" fill="#CCCCCC"/>
<path d="M287.189 330.815C283.63 335.489 279.776 340.553 276.218 345.228C279.776 340.553 283.63 335.489 287.189 330.815Z" fill="#BCBCBC"/>
<path d="M492.648 426.332C498.186 421.074 504.021 415.427 509.56 410.17C504.021 415.427 498.483 420.685 492.648 426.332Z" fill="#BBBBBB"/>
<path d="M210.775 381.536C207.905 383.287 205.332 384.649 202.462 386.401C201.829 386.829 201.613 387.92 201.316 388.31C202.03 388.584 202.784 389.208 203.458 389.131C215.582 387.739 208.089 396.776 206.943 398.685C189.782 430.518 172.54 461.65 154.666 493.209C148.721 503.846 140.257 513.35 135.026 524.26C130.052 534.43 127.595 545.733 123.712 556.489C122.43 560.191 119.762 563.697 117.47 567.515C113.066 564.821 108.029 562.555 104.178 558.731C98.8187 553.658 94.0524 547.805 88.9492 541.992C74.3537 524.825 74.6905 524.786 88.2349 509.011C101.186 494.014 113.801 479.057 126.415 464.099C133.019 456.231 139.92 447.973 146.106 439.442C153.222 430.093 159.167 419.456 166.701 410.77C171.229 405.628 178.356 402.322 184.056 398.468C186.886 396.365 190.052 394.224 192.465 391.459C199.782 383.864 207.06 375.919 214.714 368.285C216.277 367.039 218.635 366.769 220.952 366.147C220.48 367.979 220.384 370.123 219.535 371.643C217.621 375.773 215.666 379.553 213.711 383.332C212.997 383.059 211.906 382.473 210.775 381.536Z" fill="#B7B7B7"/>
<path d="M187.554 512.188C186.705 513.707 186.273 515.89 184.966 516.396C180.789 518.653 176.195 520.247 171.978 522.153C172.505 517.826 171.564 512.601 173.599 509.523C193.077 477.069 212.556 444.614 233.502 413.058C245.377 394.63 259.474 377.724 273.234 360.858C278.315 354.586 285.08 348.122 291.991 345.906C301.557 343.031 312.279 344.289 322.207 344.572C322.881 344.494 324.495 349.642 323.606 350.81C317.675 358.601 310.991 365.768 304.684 373.247C300.415 368.759 304.929 366.464 306.627 363.425C307.22 362.645 308.15 361.828 308.029 360.775C307.019 360.891 306.466 362.021 305.873 362.8C295.766 372.848 285.659 382.896 276.723 394.232C266.602 407.125 255.726 419.395 242.13 428.777C240.23 430.061 239.718 431.542 239.959 433.647C240.282 436.455 239.136 438.364 236.859 439.336C220.92 446.143 212.644 460.247 204.407 474.702C199.608 483.43 193.422 491.961 188.246 500.376C187.06 501.935 186.587 503.766 185.401 505.325C183.406 508.753 183.985 510.82 187.554 512.188Z" fill="#ADADAD"/>
<path d="M187.554 512.187C186.287 513.044 185.101 514.602 183.458 515.146C180.507 516.196 177.516 516.895 174.566 517.944C175.968 515.295 177.033 512.684 178.475 510.385C187.385 495.853 195.204 480.735 205.245 467.139C213.211 456.27 223.776 447.236 233.249 437.617C234.139 436.448 234.651 434.967 235.541 433.799C225.049 428.603 235.907 428.068 237.133 426.861C247.914 416.736 259.785 407.196 270.149 396.408C283.301 383.166 295.323 368.988 308.099 355.434C309.622 353.837 313.07 354.152 315.724 353.492C314.996 356.064 314.644 358.949 313.202 361.247C310.614 365.455 307.649 369.351 304.684 373.246C297.406 381.192 290.883 389.762 283.942 397.669C280.937 401.213 278.268 404.719 274.886 407.952C274.589 408.341 274.293 408.731 273.7 409.51C265.372 417.221 258.215 426.219 251.436 435.529C241.153 447.02 230.87 458.51 221.301 470.274C209.617 484.413 198.605 498.476 187.554 512.187Z" fill="#A6A6A6"/>
<path d="M498.626 195.981C494.043 203.617 490.766 210.748 486.359 216.942C478.137 228.552 469.161 239.536 460.185 250.521C450.617 262.285 440.59 273.035 431.398 285.111C416.573 304.588 402.501 324.69 387.676 344.168C384.71 348.063 380.277 351.061 377.312 354.956C363.673 372.875 350.073 391.146 336.394 408.714C334.911 410.662 331.463 410.346 328.809 411.007C329.577 408.785 329.592 405.939 331.074 403.992C341.804 387.473 352.493 370.603 363.936 354.358C372.158 342.749 381.174 332.115 390.15 321.13C404.759 302.744 418.992 284.046 433.979 265.972C448.036 248.716 462.51 232.123 476.944 215.179C482.658 208.479 489.167 202.755 495.258 196.368C495.931 196.29 496.942 196.174 498.626 195.981Z" fill="#C3C3C3"/>
<path d="M274.549 407.99C284.495 396.539 294.401 384.736 304.347 373.285C294.441 385.087 284.495 396.539 274.549 407.99Z" fill="#ADADAD"/>
<path d="M251.436 435.53C258.969 426.843 266.166 418.196 273.7 409.51C266.166 418.196 258.632 426.882 251.436 435.53Z" fill="#ADADAD"/>
<path d="M281.895 296.581C288.996 290.078 296.475 283.887 302.863 277.11C333.616 244.783 363.992 212.144 394.368 179.505C395.298 178.688 396.942 178.143 397.912 177.677C397.736 179.119 397.601 180.912 397.048 182.042C386.846 194.234 376.226 205.763 366.738 218.228C347.977 242.068 329.633 266.571 311.25 290.723C307.395 295.787 303.918 301.164 299.646 305.565C297.826 307.551 294.283 309.38 292.478 308.521C290 307.738 288.546 303.995 286.58 301.732C284.992 299.781 283.443 298.181 281.895 296.581Z" fill="#F2F2F2"/>
<path d="M639.615 490.877C648.247 497.708 656.085 503.563 663.586 509.457C658.384 514.676 653.937 520.519 648.237 524.373C629.871 536.791 610.752 548.584 592.049 561.041C570.18 575.639 549.066 590.861 527.156 605.107C524.92 606.43 518.55 601.473 514.227 599.481C516.734 594.571 518.407 588.336 522.423 584.675C529.821 577.782 539.185 573.152 546.96 566.571C565.637 550.918 583.856 534.251 602.533 518.598C613.731 509.135 626.06 500.61 639.615 490.877Z" fill="#AFAFAF"/>
<path d="M763.781 697.577L764.019 442.976C364.59 421.226 80.2587 471.957 -0.66004 506.976L-0.660244 721.586L764.019 727.348L763.781 697.577Z" fill="white"/>
<path fill-rule="evenodd" clip-rule="evenodd" d="M127.893 339.073C85.5551 396.069 94.2297 486.352 145.619 529.693C146.012 528.868 146.482 527.831 147.03 526.621C150.54 518.865 157.273 503.987 167.998 492.227C179.197 479.946 201.428 472.86 211.619 472.341C199.245 464.144 169.222 440.681 148.115 412.395C127.008 384.109 125.839 351.728 127.893 339.073ZM278.029 379.067C274.931 367.04 274.886 348.499 282.783 332.735C292.982 312.377 312.37 295.491 312.37 295.491C312.37 295.491 292.348 284.001 263.871 279.988C225.113 274.525 167.257 286.08 127.893 339.073C136.875 334.216 162.516 326.652 193.218 335.254C223.921 343.856 262.552 368.047 278.029 379.067Z" fill="#AF4730"/>
<path d="M212.15 400.905C247.721 426.232 320.819 478.278 328.639 483.846C338.415 490.806 338.317 503.012 333.097 510.344C327.877 517.675 316.782 522.052 306.599 514.802" stroke="#636363" stroke-width="10" stroke-linecap="round" stroke-linejoin="round"/>
<path d="M225.128 411.988C244.849 384.291 262.454 380.253 278.029 379.067C262.552 368.047 223.921 343.856 193.218 335.254C162.516 326.652 136.875 334.216 127.893 339.073C125.839 351.728 127.008 384.109 148.115 412.395C169.222 440.681 199.245 464.144 211.619 472.341C208.969 462.27 204.248 441.314 225.128 411.988Z" fill="#D0624F"/>
</g>
</svg>
